<?xml version="1.0" encoding="UTF-8"?>
<svg width="32px" height="32px" viewBox="0 0 32 32" version="1.1" xmlns="http://www.w3.org/2000/svg">
    <!-- Generator: Sketch 49 (51002) - http://www.bohemiancoding.com/sketch -->
    <title>ico_error</title>
    <desc>Created with Sketch.</desc>
    <defs></defs>
    <g id="Atomos" stroke="none" stroke-width="1" fill="none" fill-rule="evenodd">
        <g id="Iconos" transform="translate(-296.000000, -4680.000000)" fill="#666666">
            <g id="ico-error" transform="translate(296.000000, 4680.000000)">
                <path d="M21.7533738,12.3729658 L18.5830801,15.5432594 C18.331121,15.7952186 18.3309974,16.2046579 18.5830801,16.4567406 L21.7533738,19.6270342 C22.0821692,19.9558296 22.0818062,20.4902889 21.7523403,20.8197549 L20.8197549,21.7523403 C20.4899193,22.0821758 19.9562458,22.0825854 19.6270342,21.7533738 L16.4567406,18.5830801 C16.2047814,18.331121 15.7953421,18.3309974 15.5432594,18.5830801 L12.3729658,21.7533738 C12.0441704,22.0821692 11.5097111,22.0818062 11.1802451,21.7523403 L10.2476597,20.8197549 C9.91782421,20.4899193 9.91741461,19.9562458 10.2466262,19.6270342 L13.4169199,16.4567406 C13.668879,16.2047814 13.6690026,15.7953421 13.4169199,15.5432594 L10.2466262,12.3729658 C9.9178308,12.0441704 9.91819382,11.5097111 10.2476597,11.1802451 L11.1802451,10.2476597 C11.5100807,9.91782421 12.0437542,9.91741461 12.3729658,10.2466262 L15.5432594,13.4169199 C15.7952186,13.668879 16.2046579,13.6690026 16.4567406,13.4169199 L19.6270342,10.2466262 C19.9558296,9.9178308 20.4902889,9.91819382 20.8197549,10.2476597 L21.7523403,11.1802451 C22.0821758,11.5100807 22.0825854,12.0437542 21.7533738,12.3729658 Z M16,2 C8.27082422,2 2,8.27082422 2,16 C2,23.735 8.27082422,30 16,30 C23.735,30 30,23.735 30,16 C30,8.27082422 23.735,2 16,2 L16,2 L16,2 Z" id="error"></path>
            </g>
        </g>
    </g>
</svg>