<?xml version="1.0" encoding="UTF-8"?>
<svg width="32px" height="32px" viewBox="0 0 32 32" version="1.1" xmlns="http://www.w3.org/2000/svg">
    <!-- Generator: Sketch 46.2 (44496) - http://www.bohemiancoding.com/sketch -->
    <title>passengers</title>
    <desc>Created with Sketch.</desc>
    <defs></defs>
    <g id="Page-1" stroke="none" stroke-width="1" fill="none" fill-rule="evenodd">
        <g id="passengers" fill="#666666" fill-rule="nonzero">
            <path d="M17.2047368,20.7350554 C14.6103158,19.6800064 13.7916842,18.796241 13.7916842,16.8998876 C13.7916842,15.7606361 14.5756842,16.1334297 14.9249474,14.0449221 C15.0678947,13.1712321 15.7656842,14.0240514 15.8961053,12.0528514 C15.8961053,11.2640835 15.5144211,11.072649 15.5144211,11.072649 C15.5144211,11.072649 15.7111579,9.90101205 15.7877895,9.00573173 C15.8850526,7.887351 15.2086316,5 11.6091579,5 C8.02,5 7.34505263,7.887351 7.44231579,9.00573173 C7.51894737,9.90101205 7.71568421,11.072649 7.71568421,11.072649 C7.71568421,11.072649 7.334,11.2640835 7.334,12.0528514 C7.46368421,14.0240514 8.16221053,13.1712321 8.30221053,14.0449221 C8.65294737,16.13271 9.44947368,15.7599165 9.44947368,16.8998876 C9.44947368,18.796241 8.62052632,19.6800064 6.02389474,20.7350554 C5.23915789,21.0545928 2,22.6314088 2,23.8246361 L2,27.1912932 L22.0037895,27.3726522 L22.0037895,23.9002024 C22.0037895,22.8127679 19.8013684,21.7893847 17.2047368,20.7350554 Z M30,27.3719325 C30,27.3719325 29.9454737,22.5565622 29.6507368,22.0556659 C29.1916842,21.3208739 28.1446316,20.8091823 26.1927368,20.010339 C24.2518947,19.2215711 23.6410526,18.5616257 23.6410526,17.1337831 C23.6410526,16.2809639 24.2290526,16.5580402 24.4921053,14.9920193 C24.5996842,14.3529446 25.1228421,14.9920193 25.2215789,13.500845 C25.2215789,12.9157462 24.9378947,12.766053 24.9378947,12.766053 C24.9378947,12.766053 25.0801053,11.8930827 25.1346316,11.2216225 C25.2105263,10.3803181 24.6984211,8.21768353 22.0037895,8.21768353 C19.3106316,8.21768353 18.8088421,10.3803181 18.8736842,11.2216225 C18.9385263,11.8930827 19.0807368,12.766053 19.0807368,12.766053 C19.0807368,12.766053 18.7977895,12.9157462 18.7977895,13.500845 C18.8957895,14.9920193 19.4189474,14.3529446 19.528,14.9920193 C19.7895789,16.5580402 20.3775789,16.2809639 20.3775789,17.1337831 C20.3775789,18.1031904 20.0946316,18.7213944 19.2973684,19.2640321 C23.5415789,21.3309494 24.1082105,21.7469237 24.1082105,23.5893012 L24.1082105,27.3712129 L30,27.3712129 L30,27.3719325 Z"></path>
        </g>
    </g>
</svg>