<?xml version="1.0" encoding="UTF-8"?>
<svg width="32px" height="32px" viewBox="0 0 32 32" version="1.1" xmlns="http://www.w3.org/2000/svg">
    <!-- Generator: Sketch 46.2 (44496) - http://www.bohemiancoding.com/sketch -->
    <title>social-instagram</title>
    <desc>Created with Sketch.</desc>
    <defs></defs>
    <g id="Ãtomos" stroke="none" stroke-width="1" fill="none" fill-rule="evenodd">
        <g id="Iconos" transform="translate(-233.000000, -6812.000000)" fill="#666666">
            <g id="ico-social-instagram" transform="translate(233.000000, 6812.000000)">
                <g id="social-instagram" transform="translate(4.000000, 4.000000)">
                    <g id="Shape" transform="translate(0.451548, 0.131868)" fill-rule="nonzero">
                        <path d="M21.806993,17.3643956 L21.806993,6.41702298 C21.806993,3.56701469 19.4965617,1.25658342 16.6465534,1.25658342 L6.38713287,1.25658342 C3.53707459,1.25658342 1.22669331,3.56698475 1.22669331,6.41702298 L1.22669331,17.3643956 C1.22669331,20.2144338 3.53707459,22.5248352 6.38713287,22.5248352 L16.6465534,22.5248352 C19.4965617,22.5248352 21.806993,20.2144039 21.806993,17.3643956 Z M24.2045954,17.3643956 C24.2045954,21.5385631 20.820721,24.9224376 16.6465534,24.9224376 L6.38713287,24.9224376 C2.21291069,24.9224376 -1.17090909,21.5385884 -1.17090909,17.3643956 L-1.17090909,6.41702298 C-1.17090909,2.24283017 2.21291069,-1.14101898 6.38713287,-1.14101898 L16.6465534,-1.14101898 C20.820721,-1.14101898 24.2045954,2.24285544 24.2045954,6.41702298 L24.2045954,17.3643956 Z" id="Shape-3"></path>
                        <path d="M11.4795079,7.49212334 C9.12733697,7.42349043 7.15428571,9.41816311 7.15428571,11.8551848 C7.15428571,14.2645918 9.10743791,16.2177822 11.5168032,16.2177822 C13.9045544,16.2177822 15.8260799,14.279937 15.8797056,11.8272574 C15.936291,9.23484761 14.383149,7.57678509 11.4795079,7.49212334 Z M18.4365386,11.8830931 C18.3528987,15.7092238 15.312728,18.7752248 11.5168032,18.7752248 C7.69499018,18.7752248 4.59684316,15.6770171 4.59684316,11.8551848 C4.59684316,7.99917895 7.73721121,4.82439759 11.5540712,4.93576797 C15.870481,5.06162196 18.5236218,7.89400508 18.4365386,11.8830931 Z" id="Shape-2"></path>
                    </g>
                    <path d="M20.4991009,5.01146853 C20.4991009,5.88531469 19.7906893,6.59380619 18.9167632,6.59380619 C18.0429171,6.59380619 17.3344256,5.88531469 17.3344256,5.01146853 C17.3344256,4.13754246 18.0429171,3.42913087 18.9167632,3.42913087 C19.7906893,3.42913087 20.4991009,4.13754246 20.4991009,5.01146853" id="Circle"></path>
                </g>
            </g>
        </g>
    </g>
</svg>