<?xml version="1.0" encoding="UTF-8"?>
<svg width="32px" height="32px" viewBox="0 0 32 32" version="1.1" xmlns="http://www.w3.org/2000/svg">
    <!-- Generator: Sketch 46.2 (44496) - http://www.bohemiancoding.com/sketch -->
    <title>time</title>
    <desc>Created with Sketch.</desc>
    <defs></defs>
    <g id="Ãtomos" stroke="none" stroke-width="1" fill="none" fill-rule="evenodd">
        <g id="Iconos" transform="translate(-367.000000, -5673.000000)" fill-rule="nonzero" fill="#666666">
            <g id="ico-time" transform="translate(367.000000, 5673.000000)">
                <g id="time" transform="translate(3.000000, 3.000000)">
                    <path d="M13,23 C18.5228475,23 23,18.5228475 23,13 C23,7.4771525 18.5228475,3 13,3 C7.4771525,3 3,7.4771525 3,13 C3,18.5228475 7.4771525,23 13,23 Z M13,26 C5.82029825,26 0,20.1797017 0,13 C0,5.82029825 5.82029825,0 13,0 C20.1797017,0 26,5.82029825 26,13 C26,20.1797017 20.1797017,26 13,26 Z" id="Oval"></path>
                    <path d="M13.75,6.5 C13.75,5.80964406 13.1903559,5.25 12.5,5.25 C11.8096441,5.25 11.25,5.80964406 11.25,6.5 L11.25,13.5 C11.25,14.1903559 11.8096441,14.75 12.5,14.75 L17.5,14.75 C18.1903559,14.75 18.75,14.1903559 18.75,13.5 C18.75,12.8096441 18.1903559,12.25 17.5,12.25 L13.75,12.25 L13.75,6.5 Z" id="Path-2"></path>
                </g>
            </g>
        </g>
    </g>
</svg>