<?xml version="1.0" encoding="UTF-8"?>
<svg width="140px" height="31px" viewBox="0 0 140 31" version="1.1" xmlns="http://www.w3.org/2000/svg" xmlns:xlink="http://www.w3.org/1999/xlink">
    <!-- Generator: Sketch 46.2 (44496) - http://www.bohemiancoding.com/sketch -->
    <title>Logo-Despegar</title>
    <desc>Created with Sketch.</desc>
    <defs></defs>
    <g id="nav" stroke="none" stroke-width="1" fill="none" fill-rule="evenodd">
        <g id="360-Home" transform="translate(-15.000000, -15.000000)">
            <g id="320-common-header/nolog">
                <g id="Logo-Despegar" transform="translate(15.000000, 15.000000)">
                    <path d="M132.675789,22.8568421 L132.712632,22.8568421 C135.416842,22.8568421 137.413684,22.4957895 138.622105,22.0168421 C138.423158,21.7736842 138.224211,21.5452632 138.054737,21.3315789 C138.054737,21.3315789 138.327368,21.3315789 138.349474,21.3094737 C138.349474,17.2421053 134.326316,16.8663158 133.921053,16.8663158 C133.921053,16.4242105 133.14,16.5126316 132.882105,16.5126316 C132.882105,16.0705263 133.117895,15.9305263 133.117895,15.9305263 L133.626316,15.6136842 L133.523158,15.1568421 L131.865263,15.1568421 L131.762105,15.6136842 L132.270526,15.9305263 C132.270526,15.9305263 132.506316,16.0705263 132.506316,16.5126316 C132.248421,16.5126316 131.467368,16.4242105 131.467368,16.8663158 C131.062105,16.8663158 127.038947,17.2421053 127.038947,21.3094737 C127.061053,21.3315789 127.333684,21.3315789 127.333684,21.3315789 C127.164211,21.5452632 126.972632,21.7736842 126.766316,22.0168421 C127.974737,22.4957895 129.971579,22.8568421 132.675789,22.8568421" id="Fill-1" fill="#024DA1"></path>
                    <path d="M139.049474,22.5326316 C137.914737,23.1073684 135.770526,23.5642105 132.712632,23.5642105 L132.675789,23.5642105 C129.617895,23.5642105 127.473684,23.1073684 126.338947,22.5326316 C125.830526,23.1663158 125.388421,23.8221053 125.388421,24.3747368 C125.388421,25.2884211 127.937895,26.3863158 132.675789,26.3936842 L132.712632,26.3936842 C137.450526,26.3863158 140,25.2884211 140,24.3747368 C140,23.8221053 139.557895,23.1663158 139.049474,22.5326316" id="Fill-2" fill="#024DA1"></path>
                    <path d="M2.32842105,25.2810526 C2.86631579,25.2810526 3.39684211,25.1852632 3.91263158,24.9936842 C4.43578947,24.8094737 4.92210526,24.5221053 5.37894737,24.1463158 C5.83578947,23.7705263 6.22631579,23.3063158 6.55789474,22.7463158 L6.55052632,22.9305263 L6.52105263,23.2547368 L6.49157895,23.5863158 C6.48421053,23.7631579 6.47684211,23.9547368 6.48421053,24.1536842 C6.48421053,24.3526316 6.49157895,24.5368421 6.50631579,24.7063158 C6.52105263,24.8757895 6.54315789,25.0157895 6.57263158,25.1189474 C6.60210526,25.2221053 6.63157895,25.2736842 6.66842105,25.2810526 C6.77157895,25.2810526 6.91894737,25.2736842 7.13263158,25.2589474 C7.33894737,25.2442105 7.57473684,25.2294737 7.82526316,25.1926316 C8.09052632,25.1705263 8.34105263,25.1263158 8.59157895,25.0747368 C8.84210526,25.0231579 9.05578947,24.9568421 9.23263158,24.8831579 L9.24736842,24.1463158 C9.25473684,23.8147368 9.27684211,23.4463158 9.30631579,23.0263158 C9.32842105,22.6063158 9.37263158,22.1789474 9.43157895,21.7294737 C9.46105263,21.5305263 9.49789474,21.2357895 9.55684211,20.86 L9.75578947,19.5263158 L10.0210526,17.8684211 L10.3084211,16.0410526 L10.5957895,14.1768421 L10.8757895,12.4231579 L11.1042105,10.9347368 C11.1557895,10.6252632 11.1705263,10.3968421 11.1484211,10.2494737 C11.1263158,10.1021053 11.0526316,10.0284211 10.9273684,10.0284211 C10.7652632,10.0284211 10.5736842,10.0357895 10.3452632,10.0578947 C10.1094737,10.08 9.87368421,10.1094737 9.61578947,10.1389474 L8.88631579,10.2421053 L8.28947368,10.3378947 C8.28947368,10.5294737 8.27473684,10.7873684 8.23789474,11.1189474 C8.20842105,11.4431579 8.16421053,11.8115789 8.11263158,12.2168421 L7.93578947,13.4252632 C7.86947368,13.8305263 7.81052632,14.2063158 7.75157895,14.5526316 C7.68526316,14.8915789 7.63368421,15.1715789 7.58947368,15.3852632 C7.39052632,15.2747368 7.14736842,15.1863158 6.86736842,15.12 C6.58736842,15.0610526 6.27789474,15.0315789 5.94631579,15.0315789 C5.20210526,15.0315789 4.51684211,15.1642105 3.89052632,15.4 C3.27894737,15.6431579 2.72631579,15.9894737 2.24,16.4168421 C1.76105263,16.8515789 1.35578947,17.3526316 1.01684211,17.9273684 C0.685263158,18.5021053 0.434736842,19.1136842 0.257894737,19.7768421 C0.0884210526,20.44 0,21.1178947 0,21.8178947 C0,22.5473684 0.0957894737,23.1736842 0.287368421,23.6894737 C0.471578947,24.1978947 0.736842105,24.5957895 1.08315789,24.8684211 C1.42947368,25.1410526 1.82736842,25.2736842 2.30631579,25.2810526 L2.32842105,25.2810526 L2.32842105,25.2810526 Z M3.81684211,22.9452632 C3.58105263,22.9452632 3.38947368,22.8273684 3.22736842,22.5842105 C3.07263158,22.3410526 2.99157895,21.9357895 2.98421053,21.3757895 C2.98421053,21 3.02105263,20.6168421 3.10210526,20.2115789 C3.18315789,19.8063158 3.30105263,19.4084211 3.46315789,19.0252632 C3.62526316,18.6494737 3.82421053,18.2957895 4.07473684,17.9863158 C4.32526316,17.6768421 4.61263158,17.4336842 4.95157895,17.2494737 C5.29052632,17.0726316 5.67368421,16.9768421 6.10105263,16.9694737 C6.38105263,16.9694737 6.63157895,17.0136842 6.83789474,17.0947368 C7.05157895,17.1684211 7.22105263,17.2789474 7.35368421,17.4115789 L7.30210526,17.6473684 L7.25052632,17.92 L7.22105263,18.1189474 C7.09578947,18.7821053 6.93368421,19.3789474 6.72,19.9021053 C6.51368421,20.4178947 6.27789474,20.8747368 6.02,21.2505263 C5.76210526,21.6336842 5.49684211,21.9505263 5.23157895,22.2010526 C4.95894737,22.4515789 4.70105263,22.6357895 4.45789474,22.7610526 C4.22210526,22.8863158 4.01578947,22.9452632 3.83894737,22.9452632 L3.81684211,22.9452632 L3.81684211,22.9452632 Z M17.1536842,15.0315789 C16.4757895,15.0315789 15.8568421,15.1568421 15.2821053,15.3852632 C14.7073684,15.6210526 14.1915789,15.9452632 13.7347368,16.3578947 C13.2778947,16.7705263 12.8873684,17.2494737 12.5705263,17.7947368 C12.2536842,18.3326316 12.0105263,18.9147368 11.8410526,19.5336842 C11.6715789,20.1452632 11.5831579,20.7789474 11.5831579,21.42 C11.5757895,22.2157895 11.6936842,22.8936842 11.9294737,23.4757895 C12.1578947,24.0431579 12.5263158,24.4926316 13.0273684,24.8021053 C13.5357895,25.1189474 14.2063158,25.2736842 15.0242105,25.2810526 C15.7094737,25.2736842 16.3063158,25.2 16.8147368,25.0526316 C17.3305263,24.9052632 17.7578947,24.7210526 18.1042105,24.5 C18.4505263,24.2863158 18.7231579,24.0652632 18.9073684,23.8442105 C19.0473684,23.7115789 19.1505263,23.5494737 19.2315789,23.3505263 C19.3052632,23.1442105 19.3494737,22.9010526 19.3494737,22.6136842 C19.3494737,22.3926316 19.3273684,22.2157895 19.2905263,22.0757895 C19.2463158,21.9357895 19.1873684,21.8326316 19.1063158,21.7515789 C18.8705263,21.9505263 18.5978947,22.1494737 18.2884211,22.3484211 C17.9715789,22.54 17.6178947,22.7094737 17.2347368,22.8421053 C16.8442105,22.9821053 16.4242105,23.0484211 15.9673684,23.0557895 C15.6136842,23.0484211 15.3263158,22.9821053 15.0978947,22.8494737 C14.8768421,22.7168421 14.7147368,22.5326316 14.6115789,22.2968421 C14.5084211,22.0610526 14.4568421,21.7957895 14.4568421,21.4863158 L14.4568421,21.2210526 C14.7884211,21.2136842 15.1494737,21.1768421 15.54,21.1178947 C15.9378947,21.0589474 16.3431579,20.9631579 16.7557895,20.8378947 C17.1684211,20.72 17.5663158,20.5578947 17.9494737,20.3663158 C18.34,20.1747368 18.6789474,19.9389474 18.9884211,19.6663158 C19.2905263,19.3936842 19.5336842,19.0768421 19.7105263,18.7157895 C19.8873684,18.3547368 19.9831579,17.9421053 19.9831579,17.4778947 C19.9831579,16.9547368 19.8578947,16.5126316 19.6221053,16.1442105 C19.3863158,15.7831579 19.0547368,15.5105263 18.6347368,15.3189474 C18.2147368,15.1273684 17.7284211,15.0315789 17.1757895,15.0315789 L17.1536842,15.0315789 L17.1536842,15.0315789 Z M16.7631579,16.8147368 C16.94,16.8221053 17.08,16.8663158 17.1978947,16.9473684 C17.3157895,17.0357895 17.4042105,17.1389474 17.4631579,17.2568421 C17.5221053,17.3821053 17.5515789,17.4926316 17.5515789,17.6105263 C17.5515789,17.7505263 17.5147368,17.92 17.4410526,18.1042105 C17.36,18.2957895 17.22,18.4873684 17.0063158,18.6789474 C16.7926316,18.8631579 16.4905263,19.0326316 16.1,19.1726316 C15.7021053,19.32 15.1936842,19.4157895 14.5673684,19.46 C14.6926316,18.8410526 14.8768421,18.3326316 15.1126316,17.9421053 C15.3557895,17.5515789 15.6136842,17.2715789 15.9010526,17.0873684 C16.1810526,16.9031579 16.4610526,16.8147368 16.7410526,16.8147368 L16.7631579,16.8147368 L16.7631579,16.8147368 Z M25.4284211,15.0315789 C24.8463158,15.0315789 24.3231579,15.12 23.8442105,15.2894737 C23.3726316,15.4589474 22.9673684,15.6947368 22.6210526,15.9968421 C22.2747368,16.2915789 22.0094737,16.6452632 21.8252632,17.0505263 C21.6410526,17.4484211 21.5452632,17.8905263 21.5452632,18.3621053 C21.5378947,18.6494737 21.5821053,18.9294737 21.6631579,19.2094737 C21.7442105,19.4894737 21.9063158,19.7694737 22.1273684,20.0494737 C22.3557895,20.3368421 22.68,20.6242105 23.1,20.9189474 C23.5126316,21.2063158 23.8368421,21.4421053 24.0726316,21.6336842 C24.3084211,21.8178947 24.4705263,21.98 24.5663158,22.1126316 C24.6547368,22.2452632 24.7063158,22.3778947 24.6989474,22.5031579 C24.6989474,22.7168421 24.5884211,22.8863158 24.3894737,23.0263158 C24.1831579,23.1589474 23.9031579,23.2252632 23.5642105,23.2326316 C23.2768421,23.2326316 22.9968421,23.2031579 22.7168421,23.1442105 C22.4294737,23.0926316 22.1642105,23.0263158 21.9063158,22.9378947 C21.6557895,22.8568421 21.4273684,22.7684211 21.2357895,22.68 C21.1326316,22.6284211 21.0294737,22.6578947 20.9410526,22.7610526 C20.8452632,22.8642105 20.7789474,23.0189474 20.7273684,23.2178947 C20.6831579,23.4094737 20.6610526,23.6157895 20.6757895,23.8442105 C20.6905263,24.0578947 20.7568421,24.2642105 20.86,24.4410526 C20.9631579,24.5884211 21.1252632,24.7210526 21.3463158,24.8463158 C21.5673684,24.9715789 21.84,25.0747368 22.1642105,25.1557895 C22.4884211,25.2368421 22.8421053,25.2736842 23.2326316,25.2810526 C23.8810526,25.2736842 24.4631579,25.1852632 24.9789474,25.0084211 C25.4947368,24.8242105 25.9294737,24.5810526 26.2978947,24.2642105 C26.6589474,23.9547368 26.9389474,23.6010526 27.1305263,23.1957895 C27.3221053,22.7978947 27.4178947,22.3778947 27.4178947,21.9284211 C27.4252632,21.6336842 27.3736842,21.3463158 27.2778947,21.0736842 C27.1747368,20.8010526 27.0052632,20.5357895 26.7621053,20.2631579 C26.5263158,19.9978947 26.2021053,19.7252632 25.7968421,19.4378947 C25.4431579,19.1947368 25.1484211,18.9957895 24.9273684,18.8263158 C24.7063158,18.6568421 24.5368421,18.5094737 24.4189474,18.3915789 C24.3084211,18.2736842 24.2273684,18.1705263 24.1905263,18.0747368 C24.1463158,17.9863158 24.1242105,17.8905263 24.1315789,17.8094737 C24.1315789,17.6326316 24.1831579,17.4852632 24.2789474,17.3673684 C24.3821053,17.2568421 24.5073684,17.1757895 24.6694737,17.1168421 C24.8242105,17.0652632 25.0010526,17.0357895 25.1852632,17.0357895 C25.3989474,17.0357895 25.5978947,17.0578947 25.7747368,17.0947368 C25.9515789,17.1315789 26.1210526,17.1757895 26.2831579,17.2347368 C26.5042105,17.3231579 26.6957895,17.3231579 26.8578947,17.2568421 C27.02,17.1831579 27.1526316,17.0652632 27.2631579,16.8957895 C27.3736842,16.7336842 27.4547368,16.5494737 27.5063158,16.3505263 C27.5652632,16.1589474 27.6021053,15.9747368 27.6168421,15.8052632 C27.4621053,15.6357895 27.2557895,15.4884211 27.0126316,15.3778947 C26.7694737,15.26 26.5042105,15.1789474 26.2315789,15.12 C25.9589474,15.0610526 25.6936842,15.0315789 25.4505263,15.0315789 L25.4284211,15.0315789 L25.4284211,15.0315789 Z M32.6421053,17.4778947 L32.7526316,16.7042105 L32.8631579,15.8789474 C32.8926316,15.6136842 32.9221053,15.3705263 32.9368421,15.1715789 C32.9589474,14.9652632 32.9589474,14.8252632 32.9515789,14.7442105 C32.8115789,14.7294737 32.6273684,14.7368421 32.4136842,14.7589474 C32.2,14.7884211 31.9715789,14.8326316 31.7284211,14.8768421 C31.4778947,14.9357895 31.2421053,14.9947368 31.0136842,15.0610526 C30.7778947,15.1273684 30.5789474,15.1936842 30.4094737,15.2526316 C30.24,15.3115789 30.1221053,15.3631579 30.0557895,15.4073684 C30.0557895,15.5621053 30.0410526,15.7757895 30.0189474,16.0336842 C29.9968421,16.2842105 29.9673684,16.5642105 29.9305263,16.8736842 L29.8126316,17.7873684 L29.7021053,18.62 C29.4368421,20.4694737 29.1642105,22.3189474 28.8621053,24.1684211 C28.5747368,26.0252632 28.2652632,27.8673684 27.9484211,29.6873684 C28.1031579,29.6873684 28.2873684,29.68 28.5084211,29.6652632 C28.7368421,29.6505263 28.9652632,29.6284211 29.2084211,29.6063158 C29.4442105,29.5768421 29.6652632,29.5473684 29.8715789,29.5105263 C30.0778947,29.4810526 30.24,29.4442105 30.3578947,29.4 C30.5789474,29.3263158 30.7410526,29.2231579 30.8442105,29.0757895 C30.9473684,28.9284211 31.0210526,28.7147368 31.0652632,28.4347368 C31.1168421,28.0810526 31.1684211,27.7126316 31.2347368,27.3368421 L31.4336842,26.1136842 L31.6768421,24.6621053 C31.9494737,24.8905263 32.2663158,25.0526316 32.6494737,25.1410526 C33.0252632,25.2368421 33.4157895,25.2810526 33.8284211,25.2810526 C34.4842105,25.2736842 35.0957895,25.1484211 35.6557895,24.9052632 C36.2157895,24.6621053 36.7168421,24.3157895 37.1589474,23.8810526 C37.6010526,23.4463158 37.9768421,22.9378947 38.2863158,22.3557895 C38.5957895,21.7810526 38.8389474,21.1473684 38.9936842,20.4842105 C39.1631579,19.8136842 39.2442105,19.1136842 39.2442105,18.4063158 C39.2442105,17.9936842 39.2073684,17.5957895 39.1189474,17.1978947 C39.0305263,16.8 38.8905263,16.4389474 38.6915789,16.1147368 C38.5,15.7905263 38.2347368,15.5252632 37.9105263,15.3336842 C37.5863158,15.1347368 37.1957895,15.0315789 36.7242105,15.0315789 C36.26,15.0315789 35.8252632,15.1052632 35.4273684,15.2378947 C35.0294737,15.3778947 34.6610526,15.5621053 34.3294737,15.7905263 C33.9905263,16.0189474 33.6884211,16.2842105 33.4157895,16.5715789 C33.1431579,16.8663158 32.9,17.1684211 32.6863158,17.4778947 L32.6421053,17.4778947 L32.6421053,17.4778947 Z M35.4936842,17.3231579 C35.7515789,17.3231579 35.9431579,17.4410526 36.0831579,17.6768421 C36.2157895,17.9052632 36.2821053,18.2442105 36.2821053,18.6936842 C36.2821053,19.04 36.2526316,19.4157895 36.1936842,19.8136842 C36.1273684,20.2115789 36.0315789,20.6021053 35.8915789,20.9926316 C35.7515789,21.3831579 35.5673684,21.7368421 35.3315789,22.0536842 C35.1031579,22.3778947 34.8157895,22.6357895 34.4768421,22.8273684 C34.1378947,23.0189474 33.74,23.1147368 33.2757895,23.1221053 C33.0768421,23.1221053 32.8631579,23.0778947 32.6421053,22.9894737 C32.4136842,22.9010526 32.2147368,22.7536842 32.0305263,22.5473684 C32.0305263,22.4736842 32.0378947,22.3926316 32.0452632,22.3189474 L32.0968421,22.0168421 C32.2368421,21.2947368 32.4357895,20.6536842 32.6936842,20.0789474 C32.9442105,19.4968421 33.2315789,19.0031579 33.5557895,18.5978947 C33.8726316,18.1852632 34.1968421,17.8684211 34.5357895,17.6547368 C34.8673684,17.4336842 35.1768421,17.3231579 35.4715789,17.3231579 L35.4936842,17.3231579 L35.4936842,17.3231579 Z M46.0894737,15.0315789 C45.4115789,15.0315789 44.7852632,15.1568421 44.2178947,15.3852632 C43.6431579,15.6210526 43.1273684,15.9452632 42.6705263,16.3578947 C42.2136842,16.7705263 41.8305263,17.2494737 41.5063158,17.7947368 C41.1894737,18.3326316 40.9463158,18.9147368 40.7768421,19.5336842 C40.6073684,20.1452632 40.5189474,20.7789474 40.5189474,21.42 C40.5115789,22.2157895 40.6294737,22.8936842 40.8652632,23.4757895 C41.0936842,24.0431579 41.4621053,24.4926316 41.9631579,24.8021053 C42.4715789,25.1189474 43.1421053,25.2736842 43.96,25.2810526 C44.6452632,25.2736842 45.2421053,25.2 45.7505263,25.0526316 C46.2589474,24.9052632 46.6863158,24.7210526 47.04,24.5 C47.3863158,24.2863158 47.6589474,24.0652632 47.8431579,23.8442105 C47.9831579,23.7115789 48.0863158,23.5494737 48.16,23.3505263 C48.2410526,23.1442105 48.2852632,22.9010526 48.2852632,22.6136842 C48.2852632,22.3926316 48.2631579,22.2157895 48.2189474,22.0757895 C48.1821053,21.9357895 48.1157895,21.8326316 48.0421053,21.7515789 C47.8063158,21.9505263 47.5336842,22.1494737 47.2242105,22.3484211 C46.9073684,22.54 46.5536842,22.7094737 46.1705263,22.8421053 C45.78,22.9821053 45.36,23.0484211 44.9031579,23.0557895 C44.5494737,23.0484211 44.2547368,22.9821053 44.0336842,22.8494737 C43.8126316,22.7168421 43.6505263,22.5326316 43.5473684,22.2968421 C43.4442105,22.0610526 43.3926316,21.7957895 43.3926316,21.4863158 L43.3926316,21.2210526 C43.7242105,21.2136842 44.0852632,21.1768421 44.4757895,21.1178947 C44.8736842,21.0589474 45.2789474,20.9631579 45.6915789,20.8378947 C46.1042105,20.72 46.5021053,20.5578947 46.8852632,20.3663158 C47.2684211,20.1747368 47.6147368,19.9389474 47.9242105,19.6663158 C48.2263158,19.3936842 48.4694737,19.0768421 48.6463158,18.7157895 C48.8231579,18.3547368 48.9189474,17.9421053 48.9189474,17.4778947 C48.9189474,16.9547368 48.7936842,16.5126316 48.5578947,16.1442105 C48.3221053,15.7831579 47.9905263,15.5105263 47.5705263,15.3189474 C47.1505263,15.1273684 46.6642105,15.0315789 46.1115789,15.0315789 L46.0894737,15.0315789 L46.0894737,15.0315789 Z M45.6915789,16.8147368 C45.8684211,16.8221053 46.0157895,16.8663158 46.1336842,16.9473684 C46.2515789,17.0357895 46.34,17.1389474 46.3989474,17.2568421 C46.4578947,17.3821053 46.4873684,17.4926316 46.4873684,17.6105263 C46.4873684,17.7505263 46.4505263,17.92 46.3768421,18.1042105 C46.2957895,18.2957895 46.1484211,18.4873684 45.9421053,18.6789474 C45.7284211,18.8631579 45.4263158,19.0326316 45.0357895,19.1726316 C44.6378947,19.32 44.1294737,19.4157895 43.5031579,19.46 C43.6284211,18.8410526 43.8126316,18.3326316 44.0484211,17.9421053 C44.2842105,17.5515789 44.5494737,17.2715789 44.8294737,17.0873684 C45.1168421,16.9031579 45.3968421,16.8147368 45.6768421,16.8147368 L45.6915789,16.8147368 L45.6915789,16.8147368 Z M54.4894737,15.0315789 C53.8705263,15.0315789 53.2957895,15.1347368 52.78,15.3336842 C52.2568421,15.5326316 51.8073684,15.82 51.4242105,16.1884211 C51.0410526,16.5568421 50.7463158,16.9989474 50.5326316,17.5073684 C50.3263158,18.0157895 50.2157895,18.5757895 50.2157895,19.1947368 C50.2157895,19.6 50.2673684,19.9463158 50.3557895,20.2410526 C50.4515789,20.5431579 50.5694737,20.7936842 50.7094737,21 C50.8494737,21.2063158 51.0042105,21.3757895 51.1589474,21.5084211 C51.3136842,21.6336842 51.4610526,21.7294737 51.5936842,21.7957895 C51.3431579,21.9431579 51.1,22.0978947 50.8642105,22.2673684 C50.6357895,22.4442105 50.4442105,22.6063158 50.2968421,22.7831579 C50.1421053,22.9526316 50.0610526,23.1073684 50.0610526,23.2547368 C50.0610526,23.4978947 50.1052632,23.7115789 50.1863158,23.9031579 C50.2673684,24.0947368 50.3631579,24.2568421 50.4663158,24.3894737 C50.5694737,24.5221053 50.6652632,24.6178947 50.7389474,24.6842105 C50.3410526,24.8978947 49.9873684,25.1115789 49.6778947,25.3547368 C49.3684211,25.5905263 49.1252632,25.8263158 48.9484211,26.0621053 C48.7715789,26.2978947 48.6831579,26.5115789 48.6757895,26.7105263 C48.6757895,27.0642105 48.7568421,27.4326316 48.9336842,27.8010526 C49.1031579,28.1768421 49.3757895,28.5305263 49.7515789,28.8547368 C50.1273684,29.1789474 50.6210526,29.4442105 51.2326316,29.6431579 C51.8442105,29.8421053 52.5884211,29.9452632 53.4652632,29.9526316 C54.2021053,29.9526316 54.8726316,29.8494737 55.4621053,29.6505263 C56.0589474,29.4515789 56.5673684,29.1863158 56.9873684,28.84 C57.4073684,28.5010526 57.7315789,28.1105263 57.9526316,27.6757895 C58.1736842,27.2410526 58.2842105,26.7768421 58.2915789,26.2978947 C58.2915789,25.9663158 58.2252632,25.6347368 58.0926316,25.3105263 C57.9526316,24.9789474 57.7389474,24.6842105 57.4368421,24.4115789 C57.1421053,24.1463158 56.7442105,23.9326316 56.2505263,23.7778947 L55.5652632,23.6010526 L54.7989474,23.4094737 L54.0694737,23.2326316 C53.8484211,23.1736842 53.6715789,23.1221053 53.5242105,23.0778947 C53.2442105,22.9968421 53.0305263,22.9157895 52.8905263,22.82 C52.7431579,22.7315789 52.6694737,22.6210526 52.6694737,22.5031579 C52.6768421,22.4442105 52.6989474,22.3852632 52.7357895,22.3410526 L52.8684211,22.1936842 L53.0821053,22.2305263 C53.1852632,22.2526316 53.3105263,22.2673684 53.4578947,22.2821053 C53.6052632,22.2968421 53.76,22.3042105 53.9221053,22.3042105 C54.3052632,22.3042105 54.6884211,22.26 55.0789474,22.1715789 C55.4694737,22.0831579 55.8378947,21.9431579 56.1989474,21.7515789 C56.5526316,21.5673684 56.8694737,21.3242105 57.1494737,21.0221053 C57.4294737,20.72 57.6578947,20.3589474 57.82,19.9389474 C57.9821053,19.5115789 58.0631579,19.0252632 58.0705263,18.4726316 C58.0705263,18.3768421 58.0631579,18.2589474 58.0484211,18.1189474 C58.0336842,17.9715789 58.0115789,17.8315789 57.9894737,17.6842105 C57.96,17.5368421 57.9305263,17.4042105 57.8936842,17.3010526 C57.9968421,17.3010526 58.1368421,17.3084211 58.3063158,17.3231579 L58.8515789,17.3526316 C59.0357895,17.36 59.1831579,17.3673684 59.2936842,17.3673684 C59.2936842,17.2421053 59.3010526,17.0873684 59.3084211,16.9031579 L59.3526316,16.3431579 L59.4042105,15.7831579 C59.4263158,15.5989474 59.4484211,15.4442105 59.4705263,15.3189474 L58.9178947,15.4147368 L58.3063158,15.5252632 C58.1,15.5621053 57.9084211,15.5915789 57.7463158,15.6136842 C57.5768421,15.6357895 57.4515789,15.6505263 57.3631579,15.6505263 C57.2452632,15.6578947 57.1126316,15.6431579 56.98,15.6063158 C56.84,15.5768421 56.7,15.5252632 56.5526316,15.4736842 C56.4347368,15.4147368 56.2873684,15.3557895 56.1031579,15.2894737 C55.9189474,15.2231579 55.6978947,15.1642105 55.4326316,15.1126316 C55.1747368,15.0610526 54.8652632,15.0315789 54.5189474,15.0315789 L54.4894737,15.0315789 L54.4894737,15.0315789 Z M55.5431579,18.1189474 C55.5431579,18.5978947 55.4694737,19.0326316 55.3294737,19.4084211 C55.1894737,19.7915789 54.9905263,20.0936842 54.7473684,20.3147368 C54.4968421,20.5357895 54.2168421,20.6463158 53.9,20.6536842 C53.5757895,20.6536842 53.3252632,20.5357895 53.1484211,20.3 C52.9642105,20.0715789 52.8757895,19.7178947 52.8684211,19.2389474 C52.8684211,18.9 52.9052632,18.5757895 52.9936842,18.2736842 C53.0673684,17.9642105 53.1778947,17.6842105 53.3252632,17.4484211 C53.48,17.2052632 53.6494737,17.0136842 53.8631579,16.8736842 C54.0694737,16.7336842 54.2978947,16.6673684 54.5557895,16.66 C54.9021053,16.6673684 55.16,16.7926316 55.3147368,17.0505263 C55.4694737,17.3010526 55.5505263,17.6473684 55.5431579,18.0968421 L55.5431579,18.1189474 L55.5431579,18.1189474 Z M53.9663158,28.0147368 C53.5978947,28.0147368 53.2442105,27.9705263 52.9126316,27.8894737 C52.5810526,27.8084211 52.2863158,27.6905263 52.0357895,27.5431579 C51.7778947,27.3957895 51.5715789,27.2189474 51.4315789,27.02 C51.2768421,26.8210526 51.2031579,26.6 51.2031579,26.3568421 C51.2031579,26.2315789 51.2621053,26.0989474 51.3726316,25.9736842 C51.4831579,25.8484211 51.6084211,25.7305263 51.7557895,25.6347368 C51.9031579,25.5315789 52.0284211,25.4505263 52.1463158,25.3915789 C52.2642105,25.4063158 52.4336842,25.4357895 52.6621053,25.48 C52.8905263,25.5315789 53.1410526,25.5831579 53.4136842,25.6421053 C53.6863158,25.7084211 53.9515789,25.7673684 54.1947368,25.8336842 C54.4452632,25.9073684 54.6442105,25.9663158 54.7989474,26.0326316 C55.0568421,26.1284211 55.2557895,26.2389474 55.3884211,26.3421053 C55.5210526,26.4452632 55.6094737,26.5557895 55.6610526,26.6736842 C55.7052632,26.7915789 55.7273684,26.9094737 55.72,27.0421053 C55.72,27.2336842 55.6463158,27.3957895 55.4989474,27.5357895 C55.3515789,27.6905263 55.1526316,27.8010526 54.8947368,27.8821053 C54.6368421,27.9705263 54.3347368,28.0147368 53.9884211,28.0147368 L53.9663158,28.0147368 L53.9663158,28.0147368 Z M59.6915789,22.0389474 C59.6915789,22.7757895 59.7873684,23.38 59.9642105,23.8589474 C60.1410526,24.3378947 60.3915789,24.6989474 60.7084211,24.9347368 C61.0326316,25.1631579 61.4010526,25.2810526 61.8210526,25.2810526 C62.4178947,25.2736842 62.9852632,25.1631579 63.5305263,24.9347368 C64.0831579,24.7063158 64.5842105,24.3968421 65.0336842,24.0063158 C65.4831579,23.6231579 65.8589474,23.1736842 66.1610526,22.68 L66.1168421,23.1294737 C66.1021053,23.2989474 66.0873684,23.4757895 66.0726316,23.6526316 C66.0578947,23.9178947 66.0505263,24.1757895 66.0578947,24.4263158 C66.0578947,24.6694737 66.0726316,24.8757895 66.1021053,25.0305263 C66.1315789,25.1926316 66.1684211,25.2736842 66.2273684,25.2810526 C66.3231579,25.2810526 66.4778947,25.2736842 66.6842105,25.2589474 C66.8905263,25.2442105 67.1263158,25.2294737 67.3768421,25.1926316 C67.6347368,25.1705263 67.8926316,25.1263158 68.1357895,25.0747368 C68.3936842,25.0231579 68.6073684,24.9568421 68.7915789,24.8831579 C68.7842105,24.7578947 68.7768421,24.5589474 68.7768421,24.3010526 C68.7768421,24.0431579 68.7842105,23.7410526 68.7989474,23.3947368 C68.8210526,23.0484211 68.8505263,22.6726316 68.9021053,22.2821053 C68.9610526,21.8473684 69.02,21.3610526 69.0936842,20.8452632 L69.3073684,19.2463158 C69.3884211,18.7084211 69.4621053,18.1926316 69.5431579,17.6989474 C69.6094737,17.2052632 69.6831579,16.7705263 69.7494737,16.3947368 C69.8157895,16.0189474 69.8673684,15.7315789 69.9115789,15.54 C69.6168421,15.4663158 69.2778947,15.3926316 68.9094737,15.3189474 C68.5336842,15.2378947 68.1431579,15.1715789 67.7378947,15.12 C67.3326316,15.0610526 66.9421053,15.0315789 66.5589474,15.0315789 C65.9105263,15.0242105 65.3136842,15.0905263 64.7610526,15.2010526 C64.2010526,15.3115789 63.6778947,15.4957895 63.1915789,15.7536842 C62.7052632,16.0115789 62.2484211,16.3431579 61.8210526,16.7705263 C61.4157895,17.1757895 61.0768421,17.5957895 60.8042105,18.0526316 C60.5242105,18.5094737 60.3105263,18.9663158 60.1484211,19.4378947 C59.9863158,19.9021053 59.8684211,20.3589474 59.7947368,20.8010526 C59.7210526,21.2357895 59.6915789,21.6484211 59.6915789,22.0168421 L59.6915789,22.0389474 L59.6915789,22.0389474 Z M63.3315789,22.9452632 C63.1178947,22.9452632 62.9484211,22.8347368 62.8084211,22.6063158 C62.6831579,22.3852632 62.6094737,22.0242105 62.6094737,21.5305263 C62.6094737,21.1989474 62.6463158,20.8378947 62.7126316,20.44 C62.7863158,20.0494737 62.8968421,19.6589474 63.0589474,19.2610526 C63.2136842,18.8631579 63.4126316,18.4873684 63.6631579,18.1410526 C63.9210526,17.8021053 64.1863158,17.5515789 64.4442105,17.3747368 C64.6947368,17.1978947 64.9526316,17.08 65.2105263,17.0136842 C65.4610526,16.9547368 65.7263158,16.9252632 65.9842105,16.9252632 C66.1610526,16.9252632 66.3231579,16.94 66.4778947,16.9694737 C66.6326316,16.9989474 66.7652632,17.0357895 66.8831579,17.08 C66.8757895,17.1978947 66.8610526,17.2863158 66.8536842,17.3526316 L66.8168421,17.5663158 C66.7063158,18.2957895 66.5589474,18.9442105 66.3526316,19.5189474 C66.1463158,20.0936842 65.9178947,20.6021053 65.66,21.0294737 C65.3947368,21.4568421 65.1294737,21.8178947 64.8494737,22.0978947 C64.5694737,22.3852632 64.3042105,22.5989474 64.0389474,22.7315789 C63.7884211,22.8715789 63.5526316,22.9452632 63.3536842,22.9452632 L63.3315789,22.9452632 L63.3315789,22.9452632 Z M74.8042105,18.1410526 C74.8631579,17.7284211 74.9073684,17.3378947 74.9221053,16.9621053 C74.9442105,16.5936842 74.9515789,16.2621053 74.9368421,15.9747368 C74.9368421,15.6873684 74.9147368,15.4515789 74.8852632,15.2894737 C74.8557895,15.12 74.8263158,15.0315789 74.7821053,15.0315789 C74.7231579,15.0315789 74.6052632,15.0463158 74.4431579,15.0757895 C74.2810526,15.0978947 74.0894737,15.1347368 73.8684211,15.1789474 C73.6547368,15.2231579 73.4410526,15.2673684 73.22,15.3189474 L72.6305263,15.4663158 C72.4536842,15.5105263 72.3357895,15.5473684 72.2621053,15.5842105 C72.2694737,15.68 72.2768421,15.8126316 72.2768421,15.9821053 C72.2768421,16.1515789 72.2768421,16.3357895 72.2694737,16.5347368 C72.2694737,16.7336842 72.2547368,16.9178947 72.2473684,17.1021053 L72.2178947,17.5663158 C72.1736842,18.0305263 72.1147368,18.5315789 72.0484211,19.0621053 C71.9821053,19.6 71.9084211,20.1452632 71.82,20.7126316 C71.7389474,21.28 71.6505263,21.8326316 71.5621053,22.3778947 L71.3115789,23.9178947 C71.2231579,24.3968421 71.1421053,24.8242105 71.0757895,25.1926316 C71.26,25.1852632 71.4736842,25.1705263 71.7168421,25.1484211 C71.96,25.1263158 72.2031579,25.0968421 72.4536842,25.06 C72.7042105,25.0305263 72.9326316,24.9863158 73.1463158,24.9347368 C73.36,24.8905263 73.5294737,24.8315789 73.6621053,24.7726316 C73.8168421,24.7136842 73.9273684,24.6178947 74.0084211,24.5 C74.0894737,24.3821053 74.1484211,24.2052632 74.1926316,23.9768421 C74.3694737,22.9968421 74.5684211,22.1494737 74.7821053,21.4494737 C75.0031579,20.7494737 75.2315789,20.16 75.46,19.6957895 C75.6884211,19.2315789 75.9168421,18.8705263 76.1378947,18.6052632 C76.3663158,18.3326316 76.5726316,18.1484211 76.7715789,18.0378947 C76.9631579,17.9273684 77.14,17.8684211 77.28,17.8757895 C77.4936842,17.8757895 77.6926316,17.9126316 77.8768421,17.9715789 C78.0684211,18.0305263 78.2231579,18.1042105 78.3557895,18.1852632 C78.4884211,18.0526316 78.6136842,17.8684211 78.7389474,17.64 C78.8642105,17.4115789 78.9821053,17.1684211 79.0778947,16.8957895 C79.1736842,16.6231579 79.2473684,16.3578947 79.2915789,16.1073684 C79.3357895,15.8421053 79.3357895,15.6210526 79.2989474,15.4294737 C79.2326316,15.3631579 79.1368421,15.2968421 79.0189474,15.2378947 C78.8936842,15.1789474 78.7757895,15.1273684 78.6505263,15.0905263 C78.5252632,15.0536842 78.4221053,15.0315789 78.3336842,15.0315789 C78.0978947,15.0242105 77.8326316,15.0684211 77.5526316,15.1568421 C77.2652632,15.2452632 76.9778947,15.4 76.6757895,15.6284211 C76.3736842,15.8494737 76.0715789,16.1663158 75.7694737,16.5715789 C75.46,16.9842105 75.1652632,17.5073684 74.8705263,18.1410526 L74.8042105,18.1410526 L74.8042105,18.1410526 Z" id="Fill-3" fill="#024DA1"></path>
                    <path d="M92.3484211,15.1494737 C91.6115789,15.1568421 90.9410526,15.2673684 90.3294737,15.4884211 C89.7178947,15.7094737 89.1652632,16.0189474 88.6863158,16.4168421 C88.2,16.8147368 87.7873684,17.2863158 87.4484211,17.8242105 C87.1094737,18.3621053 86.8515789,18.9442105 86.6821053,19.5778947 C86.4978947,20.2189474 86.4094737,20.8821053 86.4094737,21.5821053 C86.4094737,22.4515789 86.5568421,23.1663158 86.8294737,23.7263158 C87.1094737,24.2863158 87.5,24.6915789 87.9936842,24.9568421 C88.4947368,25.2221053 89.0915789,25.3547368 89.7694737,25.3547368 C90.3589474,25.3473684 90.8894737,25.2810526 91.3610526,25.1557895 C91.8326316,25.0305263 92.2378947,24.8684211 92.5915789,24.6694737 C92.9378947,24.4705263 93.2178947,24.2568421 93.4389474,24.0357895 C93.6231579,23.8589474 93.7557895,23.66 93.8368421,23.4536842 C93.9252632,23.24 93.9621053,23.0189474 93.9621053,22.7831579 C93.9621053,22.6357895 93.94,22.4957895 93.9031579,22.3705263 C93.8589474,22.2526316 93.8147368,22.1568421 93.7631579,22.0757895 C93.7115789,21.9947368 93.66,21.9357895 93.6157895,21.9063158 C93.4757895,22.0315789 93.3063158,22.1642105 93.1,22.3115789 C92.9010526,22.4589474 92.68,22.5915789 92.4294737,22.7242105 C92.1863158,22.8568421 91.9284211,22.9673684 91.6557895,23.0484211 C91.3905263,23.1294737 91.1105263,23.1736842 90.8378947,23.1810526 C90.4842105,23.1736842 90.1968421,23.0926316 89.9831579,22.9157895 C89.7621053,22.7463158 89.6,22.5031579 89.5042105,22.1863158 C89.4010526,21.8694737 89.3568421,21.5010526 89.3568421,21.0736842 C89.3568421,20.7421053 89.3863158,20.3957895 89.4526316,20.0421053 C89.5189474,19.6810526 89.6221053,19.3347368 89.7694737,18.9957895 C89.9094737,18.6642105 90.0936842,18.3547368 90.3221053,18.0821053 C90.5505263,17.8168421 90.8231579,17.5957895 91.14,17.4336842 C91.4642105,17.2789474 91.84,17.1978947 92.26,17.1905263 C92.4884211,17.1905263 92.7168421,17.22 92.9378947,17.2642105 C93.1663158,17.3157895 93.3873684,17.3821053 93.5936842,17.4557895 C93.6894737,17.4484211 93.7852632,17.3821053 93.8957895,17.2715789 C93.9989474,17.1536842 94.1021053,17.0063158 94.1905263,16.8368421 C94.2789474,16.66 94.3526316,16.4757895 94.4042105,16.2842105 C94.4631579,16.0926316 94.4778947,15.9231579 94.4631579,15.7684211 C94.3084211,15.6210526 94.1168421,15.5031579 93.8957895,15.4147368 C93.6747368,15.3189474 93.4315789,15.2526316 93.1663158,15.2157895 C92.9084211,15.1715789 92.6431579,15.1494737 92.3705263,15.1494737 L92.3484211,15.1494737 L92.3484211,15.1494737 Z M101.168421,15.1494737 C100.24,15.1642105 99.4221053,15.3263158 98.7073684,15.6505263 C97.9852632,15.9821053 97.3736842,16.4389474 96.88,17.0210526 C96.3863158,17.5957895 96.0105263,18.2736842 95.7526316,19.0326316 C95.4873684,19.7842105 95.3621053,20.6021053 95.3621053,21.4715789 C95.3547368,22.7536842 95.6568421,23.7189474 96.2757895,24.3747368 C96.8873684,25.0231579 97.8378947,25.3547368 99.1347368,25.3547368 C100.033684,25.3473684 100.836842,25.1778947 101.551579,24.8536842 C102.266316,24.5294737 102.877895,24.08 103.378947,23.5052632 C103.887368,22.9231579 104.270526,22.26 104.535789,21.4936842 C104.808421,20.7273684 104.941053,19.9094737 104.941053,19.0326316 C104.941053,18.2589474 104.808421,17.5810526 104.535789,17.0063158 C104.255789,16.4242105 103.843158,15.9747368 103.290526,15.6431579 C102.730526,15.3263158 102.030526,15.1568421 101.190526,15.1494737 L101.168421,15.1494737 L101.168421,15.1494737 Z M100.8,17.0136842 C101.006316,17.0210526 101.190526,17.0726316 101.330526,17.1684211 C101.477895,17.2715789 101.595789,17.3968421 101.684211,17.5663158 C101.772632,17.7357895 101.831579,17.9126316 101.875789,18.1189474 C101.912632,18.3178947 101.927368,18.5242105 101.927368,18.7305263 C101.927368,19.3936842 101.875789,20.0052632 101.757895,20.58 C101.647368,21.1473684 101.485263,21.6557895 101.278947,22.0831579 C101.072632,22.5178947 100.814737,22.8494737 100.527368,23.1 C100.24,23.3357895 99.9231579,23.4610526 99.5694737,23.4684211 C99.2968421,23.4610526 99.0757895,23.38 98.9136842,23.2178947 C98.7442105,23.0631579 98.6263158,22.8421053 98.5452632,22.5768421 C98.4715789,22.3115789 98.4347368,22.0168421 98.4347368,21.6852632 C98.4347368,21.2210526 98.4715789,20.7642105 98.5378947,20.3073684 C98.6042105,19.8578947 98.7073684,19.4378947 98.84,19.04 C98.9726316,18.6421053 99.1273684,18.2957895 99.3189474,17.9936842 C99.5105263,17.6915789 99.7242105,17.4484211 99.9673684,17.2789474 C100.210526,17.1094737 100.483158,17.0210526 100.777895,17.0136842 L100.8,17.0136842 L100.8,17.0136842 Z M109.988421,17.9789474 L110.047368,17.5221053 C110.172632,16.7189474 110.224211,16.1294737 110.216842,15.7389474 C110.216842,15.3484211 110.150526,15.1494737 110.032632,15.1494737 C109.981053,15.1494737 109.877895,15.1642105 109.708421,15.1936842 L109.118947,15.3042105 L108.433684,15.4515789 C108.205263,15.5031579 107.998947,15.5473684 107.814737,15.5915789 C107.637895,15.6357895 107.505263,15.6726316 107.431579,15.7021053 C107.453684,15.8936842 107.438947,16.2915789 107.387368,16.8884211 C107.328421,17.4852632 107.217895,18.3326316 107.063158,19.4084211 C106.974737,19.9168421 106.893684,20.44 106.805263,20.9852632 L106.547368,22.5915789 L106.296842,24.0652632 L106.075789,25.2663158 C106.562105,25.2589474 106.974737,25.2294737 107.313684,25.1926316 C107.652632,25.1557895 107.932632,25.1042105 108.146316,25.0378947 C108.36,24.9789474 108.536842,24.9052632 108.654737,24.8242105 C108.743158,24.7652632 108.816842,24.6768421 108.890526,24.5589474 C108.949474,24.4484211 109.015789,24.2715789 109.067368,24.0357895 C109.288421,22.96 109.531579,22.0463158 109.804211,21.28 C110.069474,20.5210526 110.342105,19.8873684 110.629474,19.4010526 C110.916842,18.9 111.189474,18.5094737 111.462105,18.2294737 C111.734737,17.9494737 111.985263,17.7578947 112.213684,17.64 C112.449474,17.5294737 112.641053,17.4778947 112.803158,17.4778947 C112.987368,17.4778947 113.127368,17.5442105 113.208421,17.6621053 C113.296842,17.7873684 113.341053,17.9421053 113.355789,18.1484211 C113.363158,18.3473684 113.355789,18.5684211 113.326316,18.8189474 C113.282105,19.2684211 113.215789,19.7547368 113.134737,20.2852632 C113.053684,20.8084211 112.965263,21.3610526 112.854737,21.9210526 C112.751579,22.4884211 112.641053,23.0557895 112.530526,23.6157895 L112.191579,25.2663158 C112.685263,25.2515789 113.097895,25.2294737 113.444211,25.1778947 C113.783158,25.1336842 114.063158,25.0821053 114.276842,25.0231579 C114.483158,24.9568421 114.652632,24.8978947 114.763158,24.8463158 C114.866316,24.8021053 114.954737,24.7210526 115.035789,24.5884211 C115.116842,24.4631579 115.183158,24.2715789 115.227368,24.0357895 C115.426316,22.96 115.654737,22.0389474 115.905263,21.2726316 C116.163158,20.5136842 116.428421,19.88 116.708421,19.3863158 C116.988421,18.8926316 117.268421,18.5021053 117.541053,18.2294737 C117.813684,17.9421053 118.071579,17.7505263 118.307368,17.64 C118.543158,17.5221053 118.749474,17.4778947 118.911579,17.4778947 C119.058947,17.4778947 119.176842,17.5368421 119.265263,17.6547368 C119.353684,17.7726316 119.405263,17.9273684 119.434737,18.1263158 C119.449474,18.3326316 119.434737,18.5536842 119.375789,18.8189474 C119.316842,19.0768421 119.257895,19.3715789 119.198947,19.7105263 C119.132632,20.0421053 119.073684,20.3957895 119.007368,20.7568421 L118.815789,21.8178947 L118.653684,22.7610526 C118.602105,23.0631579 118.565263,23.3578947 118.535789,23.66 C118.506316,23.9621053 118.484211,24.2347368 118.476842,24.4926316 C118.469474,24.7505263 118.476842,24.9494737 118.491579,25.1115789 C118.506316,25.2663158 118.528421,25.3473684 118.565263,25.3547368 L119.051579,25.3326316 C119.272632,25.3178947 119.523158,25.3031579 119.803158,25.2663158 C120.083158,25.2368421 120.348421,25.2 120.606316,25.1484211 C120.864211,25.0968421 121.077895,25.0305263 121.254737,24.9568421 C121.262105,24.5957895 121.291579,24.1905263 121.335789,23.7410526 C121.38,23.2915789 121.446316,22.7978947 121.534737,22.26 L121.704211,21.1252632 L121.910526,19.8947368 C121.976842,19.4747368 122.050526,19.0768421 122.124211,18.6863158 C122.197895,18.2663158 122.227368,17.8536842 122.22,17.4336842 C122.205263,17.0210526 122.138947,16.6452632 122.021053,16.2989474 C121.895789,15.96 121.696842,15.68 121.431579,15.4736842 C121.158947,15.2673684 120.797895,15.1568421 120.355789,15.1494737 C119.84,15.1568421 119.375789,15.2378947 118.948421,15.4 C118.521053,15.5621053 118.130526,15.7831579 117.784211,16.0557895 C117.430526,16.3284211 117.121053,16.6378947 116.833684,16.9768421 C116.553684,17.3157895 116.303158,17.6621053 116.074737,18.0231579 L116.030526,18.0231579 C116.045263,17.9715789 116.052632,17.9347368 116.052632,17.9126316 L116.052632,17.7873684 C116.089474,17.3010526 116.052632,16.8663158 115.949474,16.4684211 C115.838947,16.0705263 115.64,15.7536842 115.374737,15.5178947 C115.102105,15.2821053 114.741053,15.1642105 114.284211,15.1494737 C113.783158,15.1568421 113.318947,15.2526316 112.891579,15.4294737 C112.471579,15.6063158 112.081053,15.8347368 111.727368,16.1221053 C111.373684,16.4094737 111.056842,16.7115789 110.776842,17.0357895 C110.504211,17.3673684 110.261053,17.6768421 110.047368,17.9789474 L109.988421,17.9789474 L109.988421,17.9789474 Z" id="Fill-4" fill="#ED1C24"></path>
                    <path d="M82.3936842,19.2684211 C82.0326316,19.2684211 81.7231579,19.3494737 81.4652632,19.5042105 C81.2,19.6515789 81.0010526,19.8726316 80.8610526,20.1526316 C80.7210526,20.4326316 80.6473684,20.7642105 80.6473684,21.1473684 C80.6473684,21.4568421 80.7136842,21.7221053 80.8315789,21.9431579 C80.9494737,22.1715789 81.1189474,22.3484211 81.3326316,22.4663158 C81.5536842,22.5915789 81.8115789,22.6505263 82.0989474,22.6505263 C82.4305263,22.6505263 82.7252632,22.5768421 82.9757895,22.4221053 C83.2263158,22.2673684 83.4252632,22.0536842 83.5726316,21.7810526 C83.7126316,21.5084211 83.7863158,21.1915789 83.7863158,20.8378947 C83.7863158,20.5431579 83.7347368,20.2852632 83.6315789,20.0494737 C83.5284211,19.8136842 83.3736842,19.6221053 83.1673684,19.4821053 C82.9684211,19.3421053 82.7105263,19.2684211 82.4157895,19.2684211 L82.3936842,19.2684211" id="Fill-5" fill="#ED1C24"></path>
                    <path d="M84.2947368,9.47578947 L84.9505263,8.83473684 L86.8736842,9.03368421 L89.9315789,5.30526316 L84.3757895,2.68210526 L85.6136842,1.82736842 L92.0168421,3.24947368 C92.0168421,3.24947368 95.5463158,0.0147368421 96.4231579,0.884210526 C97.3,1.76105263 93.9694737,5.20947368 93.9694737,5.20947368 L95.06,11.3252632 L94.2494737,12.4968421 L91.8768421,7.28 L88.0378947,10.22 L88.1852632,12.1652632 L87.5147368,12.8136842 L86.4536842,10.6105263 L84.2947368,9.47578947" id="Fill-6" fill="#024DA1"></path>
                    <path d="M82.2168421,17.7578947 C82.7473684,17.7578947 83.2557895,17.8831579 83.6978947,18.1115789 C84.5526316,15.5252632 85.0757895,13.9778947 86.5568421,12.1063158 L84.5231579,12.04 C83.0642105,13.8821053 82.3863158,15.3705263 81.7747368,17.7873684 C81.9221053,17.7652632 82.0621053,17.7578947 82.2168421,17.7578947" id="Fill-7" fill="#ED1C24"></path>
                    <path d="M82.2757895,24.4042105 C81.8336842,24.4042105 81.4063158,24.3157895 81.0157895,24.1536842 C81.1631579,26.5852632 81.6273684,28.1547368 82.6810526,30.2105263 L84.7810526,30.2105263 C83.7494737,28.1915789 83.2778947,26.6368421 83.1305263,24.2863158 C82.8578947,24.36 82.5705263,24.4042105 82.2757895,24.4042105" id="Fill-8" fill="#ED1C24"></path>
                </g>
            </g>
        </g>
    </g>
</svg>