<?xml version="1.0" encoding="UTF-8"?>
<svg width="22px" height="24px" viewBox="0 0 22 24" version="1.1" xmlns="http://www.w3.org/2000/svg" xmlns:xlink="http://www.w3.org/1999/xlink">
    <!-- Generator: Sketch 48.2 (47327) - http://www.bohemiancoding.com/sketch -->
    <title>header-headset-blue</title>
    <desc>Created with Sketch.</desc>
    <defs></defs>
    <g id="Page-1" stroke="none" stroke-width="1" fill="none" fill-rule="evenodd">
        <g id="header-headset-blue" fill-rule="nonzero">
            <path d="M11.1129575,0.00814593372 C11.2010749,0.00492060111 11.2899178,0.0022030893 11.3794894,0 C11.3913064,0.00694969877 11.4030561,0.0139499344 11.4147375,0.0209994928 C17.4140387,0.316794437 19.4634781,2.85687618 20.3360109,4.96176755 C20.9357829,6.40865317 21.1292307,9.01273047 20.9163543,12.7739994 L18.4798756,12.7739994 C18.5030951,10.1455783 18.4391383,8.34700654 18.2880056,7.37828429 C18.0684683,5.97110677 17.0861498,2.60492167 11.4139207,2.55201626 C11.4025353,2.55392451 11.3910583,2.55578589 11.3794894,2.5575999 C11.2934524,2.5551711 11.2084537,2.55336644 11.1244812,2.55217584 C11.0320809,2.55312256 10.9384861,2.5549236 10.8436814,2.5575999 C10.8293252,2.55534881 10.8151105,2.5530248 10.8010366,2.55062878 C5.14986738,2.57803375 4.37777146,5.50737374 4.37777146,7.9447139 C4.37777146,9.62349151 4.37777146,11.2332534 4.37777146,12.7739994 L2.09611137,13 C1.96796288,10.6186774 1.96796288,8.28583492 2.09611137,6.00147256 C2.26063787,3.06863951 4.77900324,0.328455655 10.8076175,0.0214919096 C10.8195677,0.0142758889 10.8315893,0.0071114862 10.8436814,0 C10.9342862,0.00222849807 11.024042,0.00494653432 11.1129575,0.00814593372 Z" id="Combined-Shape" fill="#0F9BC4"></path>
            <path d="M18.8460273,17.6666666 C18.9377755,19.905084 18.3267773,21.0242925 17.0130328,21.0242925 C15.6992882,21.0242925 14.3616105,21.0242925 13,21.0242925 L13,23 L17.0130328,23 C19.671011,23 21,21.2222223 21,17.6666666 C21,14.1111111 20.2820091,14.1111111 18.8460273,17.6666666 Z" id="Path-4" fill="#AAAAAA"></path>
            <polygon id="Path-5" stroke="#666666" stroke-width="0.989999995" fill="#666666" stroke-linecap="round" stroke-linejoin="round" points="15 21.6149812 14.5497436 21 11.4805298 21 11 21.6149812 11 22.4925627 11.4805298 23 14.5497436 23 15 22.4925627"></polygon>
            <path d="M21.2129526,11 L21.2129526,19 L17.7168662,19 C15.8325,18.9329314 14.9283539,18.2494975 15.004428,16.9496985 C15.0805023,15.6498995 15.0805023,14.3062015 15.004428,12.9186046 C15.1012342,11.6395349 15.7841025,11 17.053033,11 C18.3219635,11 19.9709525,11 22,11" id="Path-3" fill="#445257" transform="translate(18.500000, 15.000000) scale(-1, 1) translate(-18.500000, -15.000000) "></path>
            <path d="M6.21295267,11 L6.21295267,19 L2.71686619,19 C0.832499938,18.9329314 -0.0716461042,18.2494975 0.00442804272,16.9496985 C0.0805021933,15.6498995 0.0805021933,14.3062015 0.00442804272,12.9186046 C0.101234119,11.6395349 0.784102442,11 2.05303299,11 C3.32196356,11 4.97095255,11 7,11" id="Path-3" fill="#445257"></path>
        </g>
    </g>
</svg>