<?xml version="1.0" encoding="UTF-8"?>
<svg width="37px" height="31px" viewBox="0 0 37 31" version="1.1" xmlns="http://www.w3.org/2000/svg" xmlns:xlink="http://www.w3.org/1999/xlink">
    <!-- Generator: Sketch 48.1 (47250) - http://www.bohemiancoding.com/sketch -->
    <title>320-common-isologo</title>
    <desc>Created with Sketch.</desc>
    <defs></defs>
    <g id="320-Home" stroke="none" stroke-width="1" fill="none" fill-rule="evenodd" transform="translate(-15.000000, -15.000000)">
        <g id="320-common-isologo" transform="translate(15.000000, 15.000000)">
            <path d="M15.1991176,15.4908824 C15.1626471,15.6732353 15.1352941,15.8555882 15.0988235,16.0288235 L15.0258824,16.4117647 C14.7797059,17.7247059 14.4514706,18.9017941 14.0047059,19.9220588 C13.5852941,20.9532647 13.1020588,21.8458824 12.5732353,22.6026471 C12.0444118,23.3594118 11.4973529,23.9794118 10.9502941,24.4717647 C10.4032353,24.9641176 9.87441176,25.3379412 9.37294118,25.575 C8.88970588,25.8211765 8.46117647,25.9397059 8.10558824,25.9397059 L8.06,25.9397059 C7.56764706,25.9397059 7.17558824,25.7117647 6.84735294,25.2285294 C6.52823529,24.7361765 6.36411765,23.9429412 6.34588235,22.8488235 C6.34588235,22.1011765 6.42794118,21.3352941 6.58294118,20.5411471 C6.75617647,19.7397059 6.99323529,18.9647059 7.33058824,18.2088529 C7.65882353,17.4602941 8.06911765,16.7682647 8.57970588,16.1564706 C9.09029412,15.5455882 9.69205882,15.0623529 10.385,14.6976471 C11.0688235,14.3511765 11.8620588,14.1597059 12.7373529,14.1505882 C13.3208824,14.1505882 13.8314706,14.2326471 14.26,14.3876471 C14.6885294,14.5426471 15.0258824,14.7523529 15.2994118,15.0167647 L15.1991176,15.4908824 L15.1991176,15.4908824 Z M23.095,0.893529412 C23.0485,0.601764706 22.8935,0.455882353 22.63,0.455882353 C22.3117941,0.455882353 21.9087941,0.474117647 21.4447059,0.519705882 C20.9705882,0.565294118 20.4782353,0.62 19.9494118,0.674705882 L18.445,0.875294118 C17.98,0.948235294 17.5697059,1.00294118 17.2323529,1.06676471 C17.2323529,1.44058824 17.1958824,1.95117647 17.1320588,2.60764706 C17.0682353,3.24588235 16.9679412,3.97529412 16.8585294,4.76852941 C16.7491176,5.56176471 16.6214706,6.355 16.5029412,7.15735294 C16.3661765,7.95970588 16.2476471,8.69823529 16.12,9.38205882 C15.9923529,10.0476471 15.8829412,10.6038235 15.7917647,11.0232353 C15.3814706,10.7952941 14.8891176,10.6311765 14.3055882,10.5035294 C13.7311765,10.3941176 13.1020588,10.3211765 12.4182353,10.3211765 C10.8955882,10.3302941 9.49147059,10.5764706 8.215,11.0597059 C6.94764706,11.5338235 5.81705882,12.2085294 4.82323529,13.0564706 C3.82941176,13.9135294 2.99970588,14.9073529 2.31588235,16.0379412 C1.64117647,17.1685294 1.11235294,18.3811765 0.756764706,19.685 C0.410294118,20.9970294 0.227941176,22.3291176 0.227941176,23.715 C0.237058824,25.1555882 0.428529412,26.3864706 0.811470588,27.3985294 C1.19441176,28.4105882 1.74147059,29.1947059 2.44352941,29.7317353 C3.15470588,30.2705882 3.98441176,30.535 4.95088235,30.5441176 L4.99647059,30.5441176 C6.09970588,30.5441176 7.18470588,30.3526471 8.25147059,29.9788235 C9.32735294,29.6059118 10.3302941,29.0479118 11.2511765,28.3011765 C12.1902941,27.5635588 13.0017647,26.6426765 13.6764706,25.5385294 C13.6764706,25.5932353 13.6764706,25.7117647 13.6582353,25.9032353 L13.6035294,26.5505882 C13.5852941,26.7785294 13.5579412,26.9964412 13.5397059,27.1979412 C13.5214706,27.5544412 13.5214706,27.9373824 13.5214706,28.3285294 C13.5214706,28.7114706 13.5397059,29.0770882 13.5761765,29.4044118 C13.6035294,29.7317353 13.6491176,30.0152941 13.7038235,30.225 C13.7585294,30.4255882 13.8314706,30.535 13.9044118,30.5441176 C14.105,30.5441176 14.3876471,30.535 14.8526471,30.5267941 C15.3814706,30.5076471 15.7188235,30.5176765 16.3205882,30.5076471 C16.9952941,30.4985294 17.2688235,30.5076471 17.9161765,30.5076471 C18.5817647,30.4985294 18.8188235,30.5176765 19.1643824,30.4802941 C19.1643824,30.1438529 19.1735,28.9394118 19.1926471,28.3011765 C19.2108824,27.6629412 19.2564706,26.9235 19.3111765,26.1038235 C19.3658824,25.2750294 19.4570588,24.4161471 19.5765,23.5417647 C19.6293824,23.1405882 19.7123529,22.5752941 19.8308824,21.8185294 C19.9402941,21.0699706 20.0852647,20.1955882 20.2411765,19.1835294 C20.4052941,18.1805882 20.5876471,17.0955882 20.7690882,15.9285294 L22.5297059,5.18794118 L22.9956176,2.24294118 C23.1132353,1.63205882 23.1405882,1.17617647 23.095,0.893529412 L23.095,0.893529412 Z" id="Fill-1" fill="#024DA1"></path>
            <path d="M36.2426471,22.9491176 C36.2426471,22.5844118 35.9508824,22.1558824 35.6135294,21.7364706 C34.8485588,22.1102941 33.4252941,22.4111765 31.3920588,22.4202941 L31.3565,22.4202941 C29.3223529,22.4111765 27.9,22.1102941 27.1341176,21.7364706 C26.7976765,22.1558824 26.505,22.5844118 26.505,22.9491176 C26.505,23.5417647 28.2008824,24.2711765 31.3565,24.2802941 L31.3920588,24.2802941 C34.5476765,24.2711765 36.2426471,23.5417647 36.2426471,22.9491176 L36.2426471,22.9491176 Z M27.4167647,21.4000294 C28.2282353,21.7100294 29.5594118,21.9461765 31.3565,21.9461765 L31.3920588,21.9461765 C33.1882353,21.9461765 34.5185,21.7100294 35.3217647,21.4000294 L35.3217647,21.39 C35.3217647,18.4267647 32.4588235,18.0073529 32.1944118,18.0073529 C32.1944118,17.7155882 31.6747059,17.7702941 31.5014706,17.7702941 C31.5014706,17.4876471 31.6573824,17.3873529 31.6573824,17.3873529 L31.9938235,17.1867647 L31.9208824,16.8767647 L30.8176471,16.8767647 L30.7538235,17.1867647 L31.0911765,17.3873529 C31.0911765,17.3873529 31.2452647,17.4876471 31.2452647,17.7702941 C31.0729412,17.7702941 30.5532353,17.7155882 30.5532353,18.0073529 C30.2897353,18.0073529 27.6447059,18.3638529 27.4258824,21.3808824 L27.4167647,21.4000294 L27.4167647,21.4000294 Z" id="Fill-2" fill="#024DA1"></path>
            <path d="M25.6752941,10.9594118 L26.2132353,10.4488235 L27.8179412,10.6038235 L30.3526471,7.62235294 L25.7309118,5.52529412 L26.7602941,4.84147059 L32.0941176,5.97205882 C32.0941176,5.97205882 35.03,3.37352941 35.7603235,4.07558824 C36.4888235,4.76852941 33.7170588,7.54029412 33.7170588,7.54029412 L34.6379412,12.4364706 L33.9632353,13.3664706 L31.9755882,9.19970588 L28.7844118,11.5611765 L28.9120588,13.1111765 L28.3558824,13.6308824 L27.4714706,11.8711765 L25.6752941,10.9594118" id="Fill-3" fill="#024DA1"></path>
            <path d="M23.9073824,19.2291176 C23.6065,19.2291176 23.3411765,19.2929412 23.1314706,19.4205882 C22.9126471,19.5391176 22.7485294,19.7123529 22.63,19.9402941 C22.5114706,20.1582059 22.4567647,20.4235294 22.4567647,20.7335294 C22.4567647,20.9888235 22.5023529,21.1985294 22.6026471,21.3808824 C22.7120588,21.5550294 22.8488235,21.6908824 23.0311765,21.7911765 C23.2135294,21.8914706 23.4223235,21.9379706 23.6694118,21.9461765 C23.9429412,21.9379706 24.18,21.8732353 24.3897059,21.7537941 C24.5994118,21.6279706 24.7635294,21.4529118 24.8820588,21.2441176 C25.0005882,21.0262059 25.0644118,20.7690882 25.0644118,20.4882647 C25.0644118,20.2502941 25.0188235,20.0415 24.9367647,19.8573235 C24.8455882,19.6667647 24.7170294,19.5117647 24.5447059,19.4014412 C24.3805882,19.2929412 24.1708824,19.2291176 23.9247059,19.2291176 L23.9073824,19.2291176" id="Fill-4" fill="#ED1C24"></path>
            <path d="M23.7514706,18.0164706 C24.1982353,18.0164706 24.6176471,18.1258824 24.9914706,18.2991176 C25.6935294,16.2294118 26.1311765,14.9894118 27.3620588,13.4941176 L25.6661765,13.4485294 C24.4626471,14.9164706 23.8973529,16.1108824 23.3867647,18.0438235 C23.5043824,18.0337941 23.6329412,18.0164706 23.7514706,18.0164706" id="Fill-5" fill="#ED1C24"></path>
            <path d="M23.8052647,23.3411765 C23.4414706,23.3411765 23.0858824,23.2682353 22.7676765,23.1506176 C22.8852941,25.0917647 23.2764412,26.3417941 24.1526471,27.9911765 L25.9032353,27.9911765 C25.0370588,26.3682353 24.6440882,25.1291471 24.5182647,23.25 C24.2985294,23.3138235 24.0523529,23.3411765 23.8052647,23.3411765" id="Fill-6" fill="#ED1C24"></path>
        </g>
    </g>
</svg>