<?xml version="1.0" encoding="UTF-8"?>
<svg width="32px" height="32px" viewBox="0 0 32 32" version="1.1" xmlns="http://www.w3.org/2000/svg" xmlns:xlink="http://www.w3.org/1999/xlink">
    <!-- Generator: Sketch 48.2 (47327) - http://www.bohemiancoding.com/sketch -->
    <title>arrow</title>
    <desc>Created with Sketch.</desc>
    <defs></defs>
    <g id="Iconos" stroke="none" stroke-width="1" fill="none" fill-rule="evenodd" transform="translate(-586.000000, -5847.000000)">
        <g id="ico-arrow-right" transform="translate(602.000000, 5863.000000) rotate(-90.000000) translate(-602.000000, -5863.000000) translate(586.000000, 5847.000000)" fill="#666666">
            <path d="M14.8370161,15.9970353 L23.3529567,24.1399679 C24.2089349,24.9585734 24.2089349,26.2888971 23.3529567,27.1003156 L22.5767548,27.8413009 C21.7222141,28.6599063 20.3351126,28.6599063 19.4805718,27.8413009 L9.46038072,18.2609575 C9.43953826,18.2458646 9.42588286,18.2458646 9.41079004,18.2314905 L8.63458817,17.4919426 C8.20264621,17.0750935 7.99494034,16.5360644 7.99494034,15.9970353 C7.99494034,15.4644746 8.20264621,14.9189772 8.63458817,14.5085964 L9.41079004,13.7690485 C9.42588286,13.7539557 9.44672531,13.7539557 9.46038072,13.7395816 L19.4805718,4.15923817 C20.3351126,3.33991398 21.7222141,3.33991398 22.5767548,4.15923817 L23.3529567,4.89231771 C24.2089349,5.71164191 24.2089349,7.04124695 23.3529567,7.86057115 L14.8370161,15.9970353" id="ico_arrow" transform="translate(15.994940, 16.000000) rotate(-90.000000) translate(-15.994940, -16.000000) "></path>
        </g>
    </g>
</svg>