<?xml version="1.0" encoding="UTF-8"?>
<svg width="32px" height="32px" viewBox="0 0 32 32" version="1.1" xmlns="http://www.w3.org/2000/svg" xmlns:xlink="http://www.w3.org/1999/xlink">
    <!-- Generator: Sketch 49 (51002) - http://www.bohemiancoding.com/sketch -->
    <title>checkmark</title>
    <desc>Created with Sketch.</desc>
    <defs></defs>
    <g id="Atomos" stroke="none" stroke-width="1" fill="none" fill-rule="evenodd">
        <g id="Iconos" transform="translate(-83.000000, -5925.000000)" fill="#666666" fill-rule="nonzero">
            <g id="ico-checkmark" transform="translate(83.000000, 5925.000000)">
                <path d="M12.6240794,18.2168038 L24.4692492,4.67907806 C25.1966015,3.84779445 26.4601255,3.76354145 27.2914092,4.49089373 C27.3123644,4.50922906 27.3329345,4.528 27.3531059,4.54719429 L29.3778046,6.47381143 C30.1531245,7.2115729 30.2102535,8.42894529 29.5074324,9.23607317 L13.7627699,27.317425 C13.0374045,28.150443 11.7740852,28.2377126 10.9410673,27.5123473 C10.9099917,27.4852876 10.8797597,27.457274 10.8504147,27.4283466 L2.60541351,19.300678 C1.81878785,18.5252466 1.8097131,17.2589491 2.58514449,16.4723235 C2.59631833,16.4609883 2.60762709,16.449787 2.61906834,16.4387218 L4.53049338,14.5901268 C5.30196993,13.8440093 6.52482586,13.8398228 7.30139302,14.5806405 L11.1812374,18.2818753 C11.5808516,18.6630931 12.2138409,18.6481799 12.5950587,18.2485658 C12.6049589,18.2381878 12.6146347,18.227598 12.6240794,18.2168038 Z" id="checkmark"></path>
            </g>
        </g>
    </g>
</svg>