<?xml version="1.0" encoding="UTF-8"?>
<svg width="32px" height="32px" viewBox="0 0 32 32" version="1.1" xmlns="http://www.w3.org/2000/svg" xmlns:xlink="http://www.w3.org/1999/xlink" style="background: #FFFFFF;">
    <!-- Generator: Sketch 49 (51002) - http://www.bohemiancoding.com/sketch -->
    <title>checkmark-circle</title>
    <desc>Created with Sketch.</desc>
    <defs></defs>
    <g id="Atomos" stroke="none" stroke-width="1" fill="none" fill-rule="evenodd">
        <g id="Iconos" transform="translate(-153.000000, -4680.000000)" fill="#666666">
            <g id="ico-checkmark-circle" transform="translate(153.000000, 4680.000000)">
                <path d="M14.3120397,17.1084019 L20.2346246,10.339539 C20.5983008,9.92389722 21.2300628,9.88177073 21.6457046,10.2454469 C21.6561822,10.2546145 21.6664673,10.264 21.676553,10.2735971 L22.6889023,11.2369057 C23.0765623,11.6057865 23.1051268,12.2144726 22.7537162,12.6180366 L14.8813849,21.6587125 C14.5187022,22.0752215 13.8870426,22.1188563 13.4705336,21.7561736 C13.4549958,21.7426438 13.4398799,21.728637 13.4252074,21.7141733 L9.30270676,17.650339 C8.90939392,17.2626233 8.90485655,16.6294746 9.29257224,16.2361617 C9.29815917,16.2304942 9.30381354,16.2248935 9.30953417,16.2193609 L10.2652467,15.2950634 C10.650985,14.9220046 11.2624129,14.9199114 11.6506965,15.2903202 L13.5906187,17.1409377 C13.7904258,17.3315465 14.1069204,17.32409 14.2975293,17.1242829 C14.3024794,17.1190939 14.3073174,17.113799 14.3120397,17.1084019 Z M16,2 C8.27082422,2 2,8.27082422 2,16 C2,23.735 8.27082422,30 16,30 C23.735,30 30,23.735 30,16 C30,8.27082422 23.735,2 16,2 L16,2 L16,2 Z" id="checkmark"></path>
            </g>
        </g>
    </g>
</svg>