<?xml version="1.0" encoding="UTF-8"?>
<svg width="32px" height="32px" viewBox="0 0 32 32" version="1.1" xmlns="http://www.w3.org/2000/svg" xmlns:xlink="http://www.w3.org/1999/xlink">
    <!-- Generator: Sketch 49 (51002) - http://www.bohemiancoding.com/sketch -->
    <title>error</title>
    <desc>Created with Sketch.</desc>
    <defs></defs>
    <g id="Atomos" stroke="none" stroke-width="1" fill="none" fill-rule="evenodd">
        <g id="Iconos" transform="translate(-152.000000, -5673.000000)" fill="#666666" fill-rule="nonzero">
            <g id="ico-error" transform="translate(152.000000, 5673.000000)">
                <path d="M27.5317184,8.61585424 L21.1387295,15.0088432 C20.5919264,15.5556463 20.5916583,16.4440856 21.1387295,16.9911568 L27.5317184,23.3841458 C28.1559928,24.0084201 28.1553034,25.0233796 27.5296342,25.6490488 L25.6490488,27.5296342 C25.0226315,28.1560515 24.0092566,28.1568293 23.3841458,27.5317184 L16.9911568,21.1387295 C16.4443537,20.5919264 15.5559144,20.5916583 15.0088432,21.1387295 L8.61585424,27.5317184 C7.99157986,28.1559928 6.97662039,28.1553034 6.3509512,27.5296342 L4.47036577,25.6490488 C3.84394848,25.0226315 3.84317071,24.0092566 4.46828157,23.3841458 L10.8612705,16.9911568 C11.4080736,16.4443537 11.4083417,15.5559144 10.8612705,15.0088432 L4.46828157,8.61585424 C3.84400719,7.99157986 3.84469659,6.97662039 4.47036577,6.3509512 L6.3509512,4.47036577 C6.97736849,3.84394848 7.99074338,3.84317071 8.61585424,4.46828157 L15.0088432,10.8612705 C15.5556463,11.4080736 16.4440856,11.4083417 16.9911568,10.8612705 L23.3841458,4.46828157 C24.0084201,3.84400719 25.0233796,3.84469659 25.6490488,4.47036577 L27.5296342,6.3509512 C28.1560515,6.97736849 28.1568293,7.99074338 27.5317184,8.61585424 Z" id="error"></path>
            </g>
        </g>
    </g>
</svg>