<?xml version="1.0" encoding="UTF-8"?>
<svg width="32px" height="32px" viewBox="0 0 32 32" version="1.1" xmlns="http://www.w3.org/2000/svg" xmlns:xlink="http://www.w3.org/1999/xlink">
    <!-- Generator: Sketch 48.2 (47327) - http://www.bohemiancoding.com/sketch -->
    <title>info</title>
    <desc>Created with Sketch.</desc>
    <defs></defs>
    <g id="Page-1" stroke="none" stroke-width="1" fill="none" fill-rule="evenodd">
        <g id="ico-info" fill="#666666">
            <path d="M19.0394224,22.8023984 C19.2143664,22.8023984 19.4789104,22.8552624 19.7245264,23.1191344 C19.9124624,23.3238704 20.0118064,23.5877424 20.0118064,23.9044784 C20.0118064,24.2326384 19.9185104,24.5022224 19.7309104,24.7132304 C19.4841744,24.9945744 19.2206384,25.0531504 19.0394224,25.0531504 L18.2242864,25.0531504 L13.7757584,25.0531504 L12.9606224,25.0531504 C12.7855664,25.0531504 12.5211344,25.0002864 12.2754064,24.7364144 C12.0875824,24.5315664 11.9882384,24.2678064 11.9882384,23.9510704 C11.9882384,23.6229104 12.0815344,23.3533264 12.2691344,23.1423184 C12.5158704,22.8608624 12.7792944,22.8023984 12.9606224,22.8023984 L13.7757584,22.8023984 L13.7757584,16.5759824 L13.7605264,16.5759824 L13.7605264,16.5725104 L12.9608464,16.5725104 C12.7855664,16.5725104 12.5213584,16.5195344 12.2754064,16.2556624 C12.0878064,16.0511504 11.9882384,15.7871664 11.9882384,15.4647184 C11.9882384,15.1422704 12.0815344,14.8726864 12.2693584,14.6617904 C12.5154224,14.3802224 12.7792944,14.3216464 12.9608464,14.3216464 L13.7605264,14.3216464 L16.9477104,14.3216464 L16.9486064,14.3233264 C17.6337104,14.3236624 18.2250704,14.9153584 18.2250704,15.6003504 L18.2242864,16.5743024 L18.2242864,22.8023984 L19.0394224,22.8023984 Z M15.7516064,12.235736 C14.3205824,12.235736 13.1381984,11.05324 13.1381984,9.590968 C13.1381984,8.128584 14.3205824,6.946648 15.7516064,6.946648 C17.2135424,6.946648 18.3959264,8.128584 18.3959264,9.590968 C18.3959264,11.05324 17.2135424,12.235736 15.7516064,12.235736 Z" id="info"></path>
        </g>
    </g>
</svg>