<?xml version="1.0" encoding="UTF-8"?>
<svg width="32px" height="32px" viewBox="0 0 32 32" version="1.1" xmlns="http://www.w3.org/2000/svg" xmlns:xlink="http://www.w3.org/1999/xlink">
    <!-- Generator: Sketch 46.1 (44463) - http://www.bohemiancoding.com/sketch -->
    <title>no-show</title>
    <desc>Created with Sketch.</desc>
    <defs></defs>
    <g id="Ãtomos" stroke="none" stroke-width="1" fill="none" fill-rule="evenodd">
        <g id="Iconos" transform="translate(-732.000000, -6001.000000)" fill="#666666">
            <g id="ico-no-show" transform="translate(718.000000, 6001.000000)">
                <path d="M44,9.96153846 L44,27.9124022 C44,29.0228672 43.0523457,29.9230769 41.8954492,29.9230769 L18.1045508,29.9230769 C16.9422395,29.9230769 16,29.033403 16,27.9124022 L16,9.96153846 L16,5.0957088 C16,3.92789848 16.9476543,2.98120117 18.1045508,2.98120117 L41.8954492,2.98120117 C43.0577605,2.98120117 44,3.92932466 44,5.0957088 L44,9.96153846 Z M24.4277939,7.92307692 C25.3575295,7.70099249 26.0463867,6.86840318 26.0463867,5.87524249 L26.0463867,2.98120117 L20,2.98120117 L20,5.87524249 C20,6.87026242 20.6900788,7.70126429 21.6186965,7.92307692 L24.4277939,7.92307692 Z M38.4277939,7.92307692 C39.3575295,7.70099249 40.0463867,6.86840318 40.0463867,5.87524249 L40.0463867,2.98120117 L34,2.98120117 L34,5.87524249 C34,6.87026242 34.6900788,7.70126429 35.6186965,7.92307692 L38.4277939,7.92307692 Z M18,12 L18,28 L42,28 L42,12 L18,12 Z M36,2.00146972 C36,1.44837327 36.4475763,1 37.0083618,1 L37.0083618,1 C37.5652647,1 38.0167236,1.45941426 38.0167236,2.00146972 L38.0167236,4.61391489 C38.0167236,5.16701135 37.5691473,5.61538462 37.0083618,5.61538462 L37.0083618,5.61538462 C36.451459,5.61538462 36,5.15597035 36,4.61391489 L36,2.00146972 Z M22,2.00146972 C22,1.44837327 22.4438648,1 23,1 C23.5522847,1 24,1.44254248 24,2.00146972 L24,4.61391489 C24,5.16701135 23.5561352,5.61538462 23,5.61538462 C22.4477153,5.61538462 22,5.17284214 22,4.61391489 L22,2.00146972 Z M26.6632549,15 L30,18.4135107 L33.3367451,15 L35,16.7041965 L31.6678608,20.1177073 L35,23.531218 L33.3367451,25.2354145 L30,21.8219038 L26.6632549,25.2354145 L25,23.531218 L28.3316274,20.1177073 L25,16.7041965 L26.6632549,15 Z" id="calendar"></path>
            </g>
        </g>
    </g>
</svg>