<?xml version="1.0" encoding="UTF-8"?>
<svg width="32px" height="32px" viewBox="0 0 32 32" version="1.1" xmlns="http://www.w3.org/2000/svg" xmlns:xlink="http://www.w3.org/1999/xlink">
    <!-- Generator: Sketch 46.2 (44496) - http://www.bohemiancoding.com/sketch -->
    <title>pickup-point</title>
    <desc>Created with Sketch.</desc>
    <defs></defs>
    <g id="Ãtomos" stroke="none" stroke-width="1" fill="none" fill-rule="evenodd">
        <g id="Iconos" transform="translate(-141.000000, -7491.000000)" fill="#666666">
            <g id="pickup-point" transform="translate(114.000000, 7491.000000)">
                <g transform="translate(27.000000, 0.000000)">
                    <path d="M17.2971236,25.2274495 C17.360727,26.6119217 16.6467787,26.9938451 16.3446624,27.0893259 L16.5656843,27.0893259 L16.3112706,27.1068307 L16.1999647,27.1211529 L16.3112706,27.1068307 L16.3446624,27.0893259 L15.3095168,27.0893259 L15.3095168,29.0148563 C15.3095168,29.3012988 15.0233014,29.5400009 14.6909736,29.5400009 L13.4491169,29.5400009 C13.1151989,29.5400009 12.8305736,29.3012988 12.8305736,29.0148563 L12.8305736,27.0893259 L7.48629652,27.0893259 L7.48629652,29.0148563 C7.48629652,29.3012988 7.20167123,29.5400009 6.86775329,29.5400009 L5.62589657,29.5400009 C5.29197863,29.5400009 5.00735334,29.3012988 5.00735334,29.0148563 L5.00735334,27.0893259 L4.11531541,27.0893259 L4.13121627,27.1068307 C4.3236166,27.1068307 4.40153079,27.1211529 4.40153079,27.1370663 C4.38562994,27.1370663 4.29022481,27.1370663 4.13121627,27.1068307 L3.90860431,27.0893259 L4.11531541,27.0893259 C3.7018932,26.9795229 3.01974655,26.5960082 3.0038457,25.4979785 C2.95614314,22.9677362 3.36797526,14.0402772 3.36797526,14.0402772 C3.36797526,12.0351795 4.78315129,10.4438321 6.58153791,10.4438321 L13.7369223,10.4438321 C15.5321288,10.4438321 16.9473048,12.0351795 16.9473048,14.0402772 C16.9473048,14.0402772 17.249421,23.7793233 17.2971236,25.2274495 Z M5.00735334,14.0880177 C5.00735334,13.3241709 5.53208153,12.9740745 6.21422818,12.9740745 L14.307763,12.9740745 C14.9914997,12.9740745 15.5162279,13.3241709 15.5162279,14.0880177 L15.7245291,18.766579 C15.7245291,19.5304258 15.1998009,19.6418201 14.5144741,19.6418201 L6.00910716,19.6418201 C5.32378034,19.6418201 4.79905215,19.5304258 4.79905215,18.766579 L5.00735334,14.0880177 L5.00735334,14.0880177 Z M4.79905215,23.2048469 C4.79905215,22.5062454 5.30787948,21.9492738 5.92960289,21.9492738 C6.56404697,21.9492738 7.07287431,22.5062454 7.07287431,23.2048469 C7.07287431,23.9066311 6.56404697,24.4795162 5.92960289,24.4795162 C5.30787948,24.4795162 4.79905215,23.9066311 4.79905215,23.2048469 L4.79905215,23.2048469 Z M13.2424058,23.2048469 C13.2424058,22.5062454 13.7528232,21.9492738 14.3713664,21.9492738 C15.0074006,21.9492738 15.5162279,22.5062454 15.5162279,23.2048469 C15.5162279,23.9066311 15.0074006,24.4795162 14.3713664,24.4795162 C13.7528232,24.4795162 13.2424058,23.9066311 13.2424058,23.2048469 Z M24.152529,18.0978501 L19.165415,13.014471 L19.1976107,13.014471 C18.1254939,11.8454451 17.4751408,10.2997295 17.4751408,8.60945528 C17.4751408,4.95846288 20.5015366,2 24.2362378,2 C27.970939,2 30.9973348,4.95846288 30.9973348,8.60945528 C30.9973348,10.2997295 30.3469817,11.8454451 29.2748649,13.014471 L29.3070606,13.014471 L24.2362378,18.0141412 L24.152529,18.0978501 Z M19.0849258,8.76109703 C19.0849258,11.6071969 21.3901379,13.912409 24.2362378,13.912409 C27.0823377,13.912409 29.3875498,11.6071969 29.3875498,8.76109703 C29.3875498,5.91499713 27.0823377,3.60978501 24.2362378,3.60978501 C21.3901379,3.60978501 19.0849258,5.91499713 19.0849258,8.76109703 Z"></path>
                </g>
            </g>
        </g>
    </g>
</svg>