<?xml version="1.0" encoding="UTF-8"?>
<svg width="32px" height="32px" viewBox="0 0 32 32" version="1.1" xmlns="http://www.w3.org/2000/svg">
    <!-- Generator: Sketch 48.2 (47327) - http://www.bohemiancoding.com/sketch -->
    <title>single</title>
    <desc>Created with Sketch.</desc>
    <defs></defs>
    <g id="Iconos" stroke="none" stroke-width="1" fill="none" fill-rule="evenodd" transform="translate(-358.000000, -8678.000000)">
        <g id="ico-single" transform="translate(347.000000, 8678.000000)" fill="#666666">
            <path d="M23.5454545,10.0909091 L23.5454545,4.5079287 C23.5454545,3.68296805 24.2145391,3 25.0227273,3 L29.1590909,3 C29.967279,3 30.6363636,3.68296805 30.6363636,4.5079287 L30.6363636,10.0909091 L32.2479339,10.0909091 C33.3193055,10.0909091 34.1818182,10.8773842 34.1818182,11.8543062 L34.1818182,14.2272727 L34.1818182,24.8729665 C34.1818182,25.8498885 33.3193055,26.6363636 32.2479339,26.6363636 L31.8181818,26.6363636 L31.8181818,27.9976054 C31.8181818,28.5512126 31.362449,29 30.8157872,29 L30.4569401,29 C29.9033328,29 29.4545455,28.5442671 29.4545455,27.9976054 L29.4545455,26.6363636 L24.7272727,26.6363636 L24.7272727,27.9976054 C24.7272727,28.5512126 24.2715399,29 23.7248781,29 L23.366031,29 C22.8124237,29 22.3636364,28.5442671 22.3636364,27.9976054 L22.3636364,26.6363636 L21.9338843,26.6363636 C20.8625127,26.6363636 20,25.8498885 20,24.8729665 L20,14.2272727 L20,11.8543062 C20,10.8773842 20.8625127,10.0909091 21.9338843,10.0909091 L23.5454545,10.0909091 Z M25.3181818,10.0909091 L28.8636364,10.0909091 L28.8636364,5.11110018 C28.8636364,4.93358983 28.742084,4.80951444 28.5681818,4.80951444 L25.6136364,4.80951444 C25.4397342,4.80951444 25.3181818,4.93358983 25.3181818,5.11110018 L25.3181818,10.0909091 Z M22.3636364,13.6363636 L22.3636364,14.8181818 L31.8181818,14.8181818 L31.8181818,13.6363636 L22.3636364,13.6363636 Z" id="single"></path>
        </g>
    </g>
</svg>