<?xml version="1.0" encoding="UTF-8"?>
<svg width="32px" height="32px" viewBox="0 0 32 32" version="1.1" xmlns="http://www.w3.org/2000/svg">
    <!-- Generator: Sketch 48.2 (47327) - http://www.bohemiancoding.com/sketch -->
    <title>youtube</title>
    <desc>Created with Sketch.</desc>
    <defs></defs>
    <g id="Iconos" stroke="none" stroke-width="1" fill="none" fill-rule="evenodd" transform="translate(-284.000000, -6892.000000)">
        <g id="ico-yotube" transform="translate(284.000000, 6892.000000)" fill="#666666" fill-rule="nonzero">
            <path d="M29.4148636,9.08047727 C30,11.2781591 30,15.8636364 30,15.8636364 C30,15.8636364 30,20.4489545 29.4150227,22.6469545 C29.0928636,23.8593864 28.1442045,24.81425 26.9394091,25.1384773 C24.7558864,25.7272727 16,25.7272727 16,25.7272727 C16,25.7272727 7.24411364,25.7272727 5.06059091,25.1384773 C3.85579545,24.81425 2.90697727,23.8593864 2.58497727,22.6469545 C2,20.4489545 2,15.8636364 2,15.8636364 C2,15.8636364 2,11.2781591 2.58497727,9.08047727 C2.90697727,7.86788636 3.85579545,6.91302273 5.06059091,6.58895455 C7.24411364,6 16,6 16,6 C16,6 24.7558864,6 26.93925,6.58895455 C28.1442045,6.91302273 29.0928636,7.86788636 29.4148636,9.08047727 Z M13.1363636,20.0268864 L20.4545455,15.8637955 L13.1363636,11.7003864 L13.1363636,20.0268864 Z" id="youtube"></path>
        </g>
    </g>
</svg>