<?xml version="1.0" encoding="UTF-8"?>
<svg width="32px" height="32px" viewBox="0 0 32 32" version="1.1" xmlns="http://www.w3.org/2000/svg" xmlns:xlink="http://www.w3.org/1999/xlink">
    <!-- Generator: Sketch 50 (54983) - http://www.bohemiancoding.com/sketch -->
    <title>traslate</title>
    <desc>Created with Sketch.</desc>
    <defs></defs>
    <g id="Atomos" stroke="none" stroke-width="1" fill="none" fill-rule="evenodd">
        <g id="Iconos" transform="translate(-361.000000, -3972.000000)" fill="#676767">
            <g id="ico-translate" transform="translate(361.000000, 3972.000000)">
                <path d="M25.1499592,21.38075 C24.0160729,21.38075 23.1104707,20.403125 23.1104707,19.19975 C23.1104707,17.978 24.0160729,17.001125 25.1499592,17.001125 C26.26388,17.001125 27.1894476,17.978 27.1894476,19.19975 C27.1894476,20.40275 26.26388,21.38075 25.1499592,21.38075 L25.1499592,21.38075 Z M7.9269429,14.256125 C8.39933272,12.8465 9.62739556,9.650375 9.83533749,9.275 C10.0440328,8.8805 10.3461514,8.410625 10.9307997,8.391125 C11.1760355,8.37275 21.2039597,8.37275 21.4857361,8.391125 C22.0523025,8.410625 22.3547977,8.4665 22.5612328,8.842625 C22.7710583,9.2375 23.9972376,12.8465 24.4696274,14.256125 L7.9269429,14.256125 L7.9269429,14.256125 Z M7.38147205,21.38075 C6.26755125,21.38075 5.36044225,20.403125 5.36044225,19.19975 C5.36044225,17.978 6.26755125,17.001125 7.38147205,17.001125 C8.51347476,17.001125 9.43941907,17.978 9.43941907,19.19975 C9.43941907,20.40275 8.51347476,21.38075 7.38147205,21.38075 L7.38147205,21.38075 Z M11.8364018,4.688375 L13.5183959,4.688375 L13.5183959,2.977625 L15.3107649,2.977625 L15.3107649,4.688375 L17.0861821,4.688375 L17.0861821,2.977625 L18.8623528,2.977625 L18.8623528,4.688375 L20.5993459,4.688375 L20.5993459,6.3605 L18.8623528,6.3605 L18.8623528,4.688375 L17.0861821,4.688375 L17.0861821,6.3605 L15.3107649,6.3605 L15.3107649,4.688375 L13.5183959,4.688375 L13.5183959,6.3605 L11.8364018,6.3605 L11.8364018,4.688375 L11.8364018,4.688375 Z M26.9057876,14.781875 C26.5283278,13.82375 24.9039699,9.687875 24.4703808,8.5415 C23.9772722,7.24475 23.223106,6.360875 22.015762,6.360875 L21.5433722,6.360875 L21.5433722,3.654125 C21.5433722,2.751875 20.8445818,2 19.957815,2 L12.4783095,2 C11.591166,2 10.8923756,2.751875 10.8923756,3.654125 L10.8923756,6.360875 L10.3830686,6.360875 C9.17346436,6.360875 8.43775677,7.24475 7.9265662,8.5415 L5.4930429,14.801375 C4.05816826,15.214625 3,16.643375 3,18.317 L3,25.10225 L5.36044225,25.10225 L5.36044225,27.864875 C5.36044225,29.143625 6.38018646,30.19625 7.56944854,30.19625 C8.77905276,30.19625 9.60893694,29.143625 9.60893694,27.864875 L9.60893694,25.10225 L22.8264341,25.10225 L22.8264341,27.734 C22.8264341,29.031125 23.564402,30.19625 24.7517805,30.19625 C25.9613847,30.19625 27.0753055,29.143625 27.0753055,27.864875 L27.0753055,25.10225 L29.4357478,25.10225 L29.4357478,18.18425 C29.4357478,16.493 28.3587442,15.195875 26.9057876,14.781875 L26.9057876,14.781875 Z" id="traslate"></path>
            </g>
        </g>
    </g>
</svg>