<?xml version="1.0" encoding="UTF-8"?>
<svg width="32px" height="32px" viewBox="0 0 32 32" version="1.1" xmlns="http://www.w3.org/2000/svg" xmlns:xlink="http://www.w3.org/1999/xlink">
    <!-- Generator: Sketch 46.2 (44496) - http://www.bohemiancoding.com/sketch -->
    <title>user</title>
    <desc>Created with Sketch.</desc>
    <defs></defs>
    <g id="Ãtomos" stroke="none" stroke-width="1" fill="none" fill-rule="evenodd">
        <g id="Iconos" transform="translate(-224.000000, -5673.000000)" fill="#666666">
            <g id="ico-user" transform="translate(224.000000, 5673.000000)">
                <path d="M2.70138111,26.4832093 C2.70138111,21.6577158 8.57114247,18.796113 15.8106177,18.796113 C23.050093,18.796113 28.9204719,21.6577158 28.9186193,26.4832093 C28.9186193,28.9008964 29.0571469,29.742378 26.6450177,29.742378 L4.9756002,29.742378 C2.56285348,29.742378 2.70138111,28.9008964 2.70138111,26.4832093 Z M15.9952636,15.9202078 C12.323961,15.9202078 9.35048375,12.9417903 9.35048375,9.27172276 C9.35048375,5.60289033 12.323961,2.62941311 15.9952636,2.62941311 C19.6690364,2.62941311 22.6437487,5.60350787 22.6437487,9.27172276 C22.6437487,12.9424078 19.6678013,15.9202078 15.9952636,15.9202078 Z"></path>
            </g>
        </g>
    </g>
</svg>